<?xml version="1.0" standalone="no"?>
<!DOCTYPE svg PUBLIC "-//W3C//DTD SVG 20010904//EN"
 "http://www.w3.org/TR/2001/REC-SVG-20010904/DTD/svg10.dtd">
<svg version="1.0" xmlns="http://www.w3.org/2000/svg"
 width="200.000000pt" height="200.000000pt" viewBox="0 0 200.000000 200.000000"
 preserveAspectRatio="xMidYMid meet">

<g transform="translate(0.000000,200.000000) scale(0.100000,-0.100000)"
fill="#000000" stroke="none">
<path d="M312 1789 c-50 -25 -99 -80 -113 -129 -6 -23 -9 -261 -7 -681 l3
-645 28 -42 c15 -23 46 -54 69 -69 l42 -28 666 0 666 0 42 28 c23 15 54 46 69
69 l28 42 0 666 0 666 -28 42 c-15 23 -46 54 -69 69 l-42 28 -655 3 c-652 2
-656 2 -699 -19z m898 -214 l0 -126 -67 3 -68 3 -3 123 -3 122 71 0 70 0 0
-125z m-160 -5 c0 -19 -7 -20 -95 -20 l-95 0 0 -80 0 -80 140 0 c133 0 140 1
140 20 0 11 7 20 15 20 11 0 15 -11 15 -40 l0 -40 -170 0 -170 0 0 113 c0 63
3 117 7 120 3 4 53 7 110 7 96 0 103 -1 103 -20z m148 -285 c13 -29 21 -59 17
-64 -9 -15 -421 -15 -430 0 -4 5 4 35 17 64 l23 55 175 0 175 0 23 -55z m-130
-134 c8 -4 12 -19 10 -32 -2 -18 -9 -24 -28 -24 -28 0 -39 27 -20 50 14 17 20
18 38 6z m102 -186 l0 -175 -25 0 -25 0 0 175 0 175 25 0 25 0 0 -175z m100 0
l0 -175 -25 0 -25 0 0 175 0 175 25 0 25 0 0 -175z m-618 78 c25 -22 24 -73
-1 -73 -12 0 -21 9 -25 25 -4 14 -13 25 -22 25 -12 0 -14 -15 -12 -92 2 -58 7
-93 15 -95 6 -2 14 5 18 16 8 28 45 28 45 1 0 -28 -35 -60 -65 -60 -13 0 -33
10 -45 22 -17 19 -20 35 -20 112 0 78 3 93 22 113 25 27 64 30 90 6z m97 -60
c8 -40 18 -73 22 -73 3 0 10 33 15 73 9 69 10 72 37 75 25 3 27 1 22 -20 -3
-13 -16 -78 -30 -146 -32 -158 -44 -182 -92 -182 -16 0 -23 6 -23 20 0 11 7
20 15 20 31 0 32 40 3 159 -34 144 -35 153 -5 149 19 -3 24 -13 36 -75z m245
46 c12 -34 2 -59 -24 -59 -15 0 -20 7 -20 25 0 14 -4 25 -10 25 -5 0 -11 -49
-12 -112 l-3 -113 -25 0 -25 0 -3 119 c-1 66 -1 125 2 132 3 7 25 11 57 10 48
-1 54 -4 63 -27z m84 -101 l-3 -133 -25 0 -25 0 -3 133 -3 132 31 0 31 0 -3
-132z m350 116 c20 -14 23 -23 20 -72 l-3 -57 -42 -3 c-39 -3 -43 -6 -43 -30
0 -15 4 -33 9 -41 11 -17 41 -7 41 14 0 8 9 15 21 15 30 0 22 -50 -12 -69 -62
-35 -109 18 -109 123 0 114 52 167 118 120z"/>
<path d="M1128 1683 c6 -2 18 -2 25 0 6 3 1 5 -13 5 -14 0 -19 -2 -12 -5z"/>
<path d="M1097 1663 c-4 -3 -7 -39 -7 -80 l0 -73 50 0 50 0 0 80 0 80 -43 0
c-24 0 -47 -3 -50 -7z"/>
<path d="M1130 1480 c0 -5 5 -10 10 -10 6 0 10 5 10 10 0 6 -4 10 -10 10 -5 0
-10 -4 -10 -10z"/>
<path d="M950 1260 c0 -5 23 -10 50 -10 28 0 50 5 50 10 0 6 -22 10 -50 10
-27 0 -50 -4 -50 -10z"/>
<path d="M1366 1004 c-13 -35 -7 -54 19 -54 18 0 25 5 25 19 0 29 -11 51 -25
51 -7 0 -16 -7 -19 -16z"/>
</g>
</svg>
