<?xml version="1.0" encoding="iso-8859-1"?>
<!-- Generator: Adobe Illustrator 19.0.0, SVG Export Plug-In . SVG Version: 6.00 Build 0)  -->
<svg version="1.1" id="Layer_1" xmlns="http://www.w3.org/2000/svg" xmlns:xlink="http://www.w3.org/1999/xlink" x="0px" y="0px"
	 viewBox="0 0 496 496" style="enable-background:new 0 0 496 496;" xml:space="preserve">
<g>
	<g>
		<g>
			<path d="M472,32h-72V0H100.688L0,100.688V496h400V192h72c13.232,0,24-10.768,24-24V56C496,42.768,485.232,32,472,32z M96,27.312
				V96H27.312L96,27.312z M384,480H16V112h96V16h272v16H184c-13.232,0-24,10.768-24,24v112c0,13.232,10.768,24,24,24h200V480z
				 M480,168c0,4.416-3.584,8-8,8H184c-4.416,0-8-3.584-8-8V56c0-4.416,3.584-8,8-8h288c4.416,0,8,3.584,8,8V168z"/>
			<rect x="32" y="128" width="16" height="16"/>
			<rect x="64" y="128" width="16" height="16"/>
			<rect x="32" y="160" width="16" height="16"/>
			<path d="M340,64h-52v96h52c15.44,0,28-12.56,28-28c0-7.832-3.224-14.912-8.424-20c5.2-5.088,8.424-12.168,8.424-20
				C368,76.56,355.44,64,340,64z M340,144h-36v-24h36c6.616,0,12,5.384,12,12C352,138.616,346.616,144,340,144z M340,104h-36V80h36
				c6.616,0,12,5.384,12,12C352,98.616,346.616,104,340,104z"/>
			<path d="M448,120c0,13.232-10.768,24-24,24s-24-10.768-24-24h-16c0,22.056,17.944,40,40,40c22.056,0,40-17.944,40-40V64h-16V120z
				"/>
			<path d="M232,64c-22.056,0-40,17.944-40,40v16c0,22.056,17.944,40,40,40c22.056,0,40-17.944,40-40v-16
				C272,81.944,254.056,64,232,64z M256,120c0,13.232-10.768,24-24,24s-24-10.768-24-24v-16c0-13.232,10.768-24,24-24
				s24,10.768,24,24V120z"/>
			<path d="M112.096,294.08C79.32,306.888,56,338.736,56,376c0,48.52,39.48,88,88,88c21.256,0,40.776-7.576,56-20.168
				C215.224,456.424,234.744,464,256,464c48.52,0,88-39.48,88-88c0-37.264-23.32-69.112-56.096-81.92
				C286.864,246.448,247.872,208,200,208S113.136,246.448,112.096,294.08z M144,448c-39.704,0-72-32.296-72-72
				c0-28.736,16.96-53.528,41.368-65.064c5.28,30.68,26.44,55.928,54.728,66.984c0.448,20.712,8.04,39.688,20.472,54.512
				C176.296,442.152,160.832,448,144,448z M215.272,366.336C210.344,367.4,205.24,368,200,368s-10.344-0.6-15.272-1.664
				c1.8-13.32,7.208-25.504,15.272-35.488C208.064,340.832,213.472,353.008,215.272,366.336z M211.424,319.56
				C223.704,309.848,239.168,304,256,304c5.24,0,10.344,0.6,15.272,1.664c-3.32,24.56-19.024,45.176-40.64,55.4
				C227.944,345.448,221.2,331.224,211.424,319.56z M169.368,361.064c-21.616-10.216-37.32-30.84-40.64-55.392
				C133.656,304.6,138.76,304,144,304c16.832,0,32.296,5.848,44.568,15.56C178.792,331.216,172.056,345.448,169.368,361.064z
				 M184.328,382.528C189.424,383.44,194.648,384,200,384s10.576-0.56,15.672-1.48c-1.32,14.56-6.968,27.864-15.672,38.64
				C191.296,410.392,185.648,397.08,184.328,382.528z M328,376c0,39.704-32.296,72-72,72c-16.832,0-32.296-5.848-44.568-15.56
				c12.432-14.832,20.024-33.8,20.472-54.512c28.288-11.056,49.456-36.312,54.728-66.984C311.04,322.472,328,347.264,328,376z
				 M200,224c37.504,0,68.36,28.824,71.672,65.48c-5.096-0.92-10.32-1.48-15.672-1.48c-21.256,0-40.776,7.576-56,20.168
				C184.776,295.576,165.256,288,144,288c-5.352,0-10.576,0.56-15.672,1.48C131.64,252.824,162.496,224,200,224z"/>
		</g>
	</g>
</g>
<g>
</g>
<g>
</g>
<g>
</g>
<g>
</g>
<g>
</g>
<g>
</g>
<g>
</g>
<g>
</g>
<g>
</g>
<g>
</g>
<g>
</g>
<g>
</g>
<g>
</g>
<g>
</g>
<g>
</g>
</svg>
