<?xml version="1.0" encoding="iso-8859-1"?>
<!-- Generator: Adobe Illustrator 16.0.0, SVG Export Plug-In . SVG Version: 6.00 Build 0)  -->
<!DOCTYPE svg PUBLIC "-//W3C//DTD SVG 1.1//EN" "http://www.w3.org/Graphics/SVG/1.1/DTD/svg11.dtd">
<svg version="1.1" id="Capa_1" xmlns="http://www.w3.org/2000/svg" xmlns:xlink="http://www.w3.org/1999/xlink" x="0px" y="0px"
	 width="124.631px" height="124.631px" viewBox="0 0 124.631 124.631" style="enable-background:new 0 0 124.631 124.631;"
	 xml:space="preserve">
<g>
	<g>
		<path d="M104.312,43.937c5.007,0,9.069-4.063,9.069-9.073c0-5.01-4.063-9.073-9.069-9.073c-5.015,0-9.077,4.063-9.077,9.073
			C95.235,39.874,99.297,43.937,104.312,43.937z"/>
		<path d="M110.342,46.145c-0.149-0.092-0.312-0.159-0.469-0.226c-1.012-0.676-2.147-1.171-3.307-1.457l-2.256,2.276l-2.194-2.301
			c-0.008,0.001-0.015,0.004-0.022,0.004c-1.16,0.278-2.301,0.771-3.317,1.442c-0.179,0.074-0.36,0.155-0.535,0.261
			c-7.045,4.32-11.09,7.737-12.339,27.73c-0.121,1.942,1.359,3.616,3.296,3.737c0.079,0.004,0.152,0.006,0.224,0.006
			c1.847,0,3.397-1.436,3.516-3.303c0.423-6.75,1.104-11.125,2.087-14.142v12.202c0,0.949,0.183,1.833,0.506,2.645
			c-0.024,0.186-0.045,0.371-0.045,0.56l0.009,33.731c0,2.299,1.859,4.164,4.159,4.164c2.302,0,4.163-1.865,4.163-4.164
			l-0.002-28.949c0.164,0.009,0.331,0.021,0.498,0.021c0.029,0,0.062-0.004,0.093-0.005v28.933c0,2.301,1.863,4.164,4.163,4.164
			c2.301,0,4.163-1.863,4.163-4.164l0.003-33.523c0.545-1.012,0.864-2.156,0.864-3.41v-12.1c0.962,3.014,1.635,7.364,2.052,14.04
			c0.115,1.867,1.669,3.303,3.514,3.303c0.072,0,0.148-0.002,0.221-0.006c1.941-0.121,3.416-1.795,3.297-3.737
			C121.433,53.882,117.387,50.465,110.342,46.145z M104.331,64.697h-0.043l-2.188-2.994l2.188-14.627h0.043l2.188,14.627
			L104.331,64.697z"/>
		<path d="M8.206,51.627c0,3.558,2.883,6.441,6.445,6.441c3.554,0,6.439-2.884,6.439-6.441s-2.886-6.442-6.439-6.442
			C11.088,45.184,8.206,48.07,8.206,51.627z"/>
		<path d="M18.932,59.636c-0.106-0.064-0.222-0.113-0.332-0.16c-0.72-0.48-1.525-0.832-2.35-1.035l-1.6,1.617l-1.56-1.634
			c-0.005,0.001-0.01,0.002-0.016,0.002c-0.823,0.198-1.634,0.548-2.355,1.025c-0.127,0.053-0.256,0.108-0.379,0.185
			C5.884,62.367,3.118,64.6,1.942,75.089h5.029c0.278-2.349,0.637-4.121,1.084-5.491v5.491h13.187v-5.42
			c0.436,1.36,0.785,3.11,1.06,5.42h5.024C26.153,64.6,23.389,62.369,18.932,59.636z M14.663,72.809h-0.029l-1.553-2.127
			l1.553-10.385h0.029l1.554,10.385L14.663,72.809z"/>
		<path d="M33.591,51.627c0,3.558,2.884,6.441,6.444,6.441c3.556,0,6.438-2.884,6.438-6.441s-2.883-6.442-6.438-6.442
			C36.475,45.184,33.591,48.07,33.591,51.627z"/>
		<path d="M44.317,59.636c-0.105-0.064-0.221-0.113-0.333-0.16c-0.718-0.48-1.524-0.832-2.347-1.035l-1.602,1.617l-1.559-1.634
			c-0.005,0.001-0.01,0.002-0.016,0.002c-0.825,0.198-1.635,0.548-2.355,1.025c-0.128,0.053-0.257,0.108-0.381,0.185
			c-4.456,2.731-7.22,4.964-8.398,15.453h5.031c0.278-2.349,0.637-4.121,1.084-5.491v5.491h13.186v-5.42
			c0.436,1.36,0.785,3.11,1.061,5.42h5.025C51.537,64.6,48.773,62.369,44.317,59.636z M40.047,72.809h-0.03l-1.552-2.127
			l1.552-10.385h0.03l1.555,10.385L40.047,72.809z"/>
		<path d="M27.245,43.393c11.965,0,21.697-9.732,21.697-21.696C48.942,9.732,39.21,0,27.245,0C15.281,0,5.549,9.732,5.549,21.697
			C5.548,33.661,15.281,43.393,27.245,43.393z M27.245,5.76c8.789,0,15.938,7.148,15.938,15.937s-7.149,15.936-15.938,15.936
			c-8.787,0-15.937-7.148-15.937-15.937S18.458,5.76,27.245,5.76z"/>
		<polygon points="38.432,19.392 29.549,19.392 29.549,10.081 24.941,10.081 24.941,24.001 38.432,24.001 		"/>
		<path d="M46.891,105.085l-2.377-0.877c0.187-1.733,0.127-3.499-0.2-5.257l2.295-1.059c1.435-0.658,2.063-2.363,1.402-3.799
			l-1.341-2.908c-0.66-1.433-2.362-2.063-3.795-1.402l-2.297,1.061c-1.123-1.393-2.428-2.586-3.865-3.57l0.878-2.375
			c0.545-1.479-0.214-3.131-1.694-3.678l-3.005-1.111c-1.435-0.526-3.148,0.263-3.676,1.694l-0.878,2.376
			c-1.731-0.185-3.499-0.123-5.257,0.2l-1.058-2.296c-0.66-1.434-2.365-2.062-3.797-1.402l-2.91,1.34
			c-1.434,0.662-2.063,2.367-1.403,3.799l1.059,2.295c-1.389,1.127-2.585,2.429-3.57,3.867L9.03,91.105
			c-1.433-0.533-3.148,0.256-3.68,1.692l-1.108,3.007c-0.266,0.717-0.234,1.494,0.085,2.189c0.321,0.691,0.893,1.221,1.607,1.482
			l2.377,0.881c-0.188,1.729-0.126,3.5,0.2,5.256l-2.298,1.059c-1.432,0.66-2.061,2.363-1.401,3.795l1.342,2.912
			c0.66,1.432,2.362,2.062,3.796,1.4l2.298-1.059c1.123,1.391,2.425,2.586,3.866,3.57l-0.878,2.375
			c-0.268,0.717-0.237,1.492,0.085,2.188c0.317,0.694,0.89,1.225,1.606,1.491l3.007,1.108c0.715,0.264,1.493,0.232,2.188-0.086
			c0.694-0.319,1.222-0.893,1.485-1.608l0.879-2.377c1.732,0.188,3.501,0.126,5.257-0.198l1.057,2.297
			c0.66,1.43,2.365,2.062,3.798,1.399l2.909-1.341c1.437-0.66,2.063-2.362,1.401-3.797l-1.058-2.295
			c1.391-1.127,2.587-2.428,3.569-3.866l2.376,0.879c0.719,0.267,1.496,0.233,2.191-0.086c0.694-0.32,1.221-0.892,1.485-1.606
			l1.109-3.007C49.13,107.281,48.372,105.632,46.891,105.085z M31.149,112.562c-1.5,0.69-3.093,1.039-4.732,1.039
			c-4.406,0-8.442-2.586-10.285-6.584c-2.61-5.67-0.122-12.404,5.545-15.015c1.5-0.692,3.091-1.041,4.729-1.041
			c4.405,0,8.444,2.583,10.287,6.583C39.303,103.215,36.815,109.951,31.149,112.562z"/>
		<polygon points="71.188,60.471 71.188,11.92 56.477,11.92 56.477,15.109 67.999,15.109 67.999,60.471 56.477,60.471 
			56.477,64.396 67.999,64.396 67.999,113.861 56.477,113.861 56.477,117.051 71.188,117.051 71.188,64.396 84.563,64.396 
			84.336,60.471 		"/>
	</g>
</g>
<g>
</g>
<g>
</g>
<g>
</g>
<g>
</g>
<g>
</g>
<g>
</g>
<g>
</g>
<g>
</g>
<g>
</g>
<g>
</g>
<g>
</g>
<g>
</g>
<g>
</g>
<g>
</g>
<g>
</g>
</svg>
