<?xml version="1.0" standalone="no"?>
<!DOCTYPE svg PUBLIC "-//W3C//DTD SVG 20010904//EN"
 "http://www.w3.org/TR/2001/REC-SVG-20010904/DTD/svg10.dtd">
<svg version="1.0" xmlns="http://www.w3.org/2000/svg"
 width="750.000000pt" height="825.000000pt" viewBox="0 0 750.000000 825.000000"
 preserveAspectRatio="xMidYMid meet">

<g transform="translate(0.000000,825.000000) scale(0.100000,-0.100000)"
fill="#000000" stroke="none">
<path d="M0 4125 l0 -4125 2709 0 c1587 0 2712 4 2715 9 11 17 87 51 114 51
l27 0 -27 -14 c-91 -48 -104 -46 344 -46 l417 0 11 42 c7 22 20 57 31 77 10
20 19 41 19 47 0 7 11 50 24 96 14 46 27 106 30 134 7 61 26 171 36 204 10 37
40 39 40 3 0 -53 -21 -158 -47 -233 -33 -97 -52 -170 -63 -245 -5 -33 -12 -75
-16 -92 l-6 -33 326 0 326 0 -80 95 c-44 52 -80 100 -80 105 0 20 -29 10 -36
-13 -15 -50 -68 -147 -78 -144 -16 5 -27 224 -13 256 6 14 12 76 13 136 2 191
2 190 21 207 10 9 27 18 38 20 30 5 71 110 92 235 3 20 18 44 39 62 18 17 36
42 40 58 3 15 17 58 29 94 13 36 25 81 27 100 2 29 0 34 -19 37 -36 5 -27 21
22 42 32 14 45 25 45 40 0 25 -11 25 -61 0 -44 -23 -60 -20 -52 10 3 13 -1 22
-11 26 -22 8 -76 -3 -100 -21 -17 -13 -18 -18 -6 -40 17 -32 0 -56 -25 -35
-10 8 -15 9 -15 1 0 -23 -40 -11 -46 13 -3 14 -12 27 -20 30 -8 3 -14 11 -14
17 0 6 -17 28 -38 49 -35 35 -43 38 -132 50 -51 7 -101 16 -109 20 -42 22
-124 41 -134 31 -16 -16 -47 -13 -47 4 0 8 -6 12 -13 9 -21 -8 -165 44 -211
75 -26 18 -67 34 -104 41 -33 6 -93 24 -133 40 -39 17 -84 30 -100 30 -15 0
-31 5 -35 11 -10 17 -92 49 -125 49 -24 0 -29 -4 -29 -25 0 -45 -16 -26 -29
35 -9 38 -22 67 -35 78 -17 14 -22 30 -24 80 -2 53 2 70 24 107 16 29 23 52
19 65 -9 29 16 26 45 -5 33 -35 64 -30 68 12 4 45 -26 73 -78 73 -40 0 -54 15
-25 26 8 4 12 10 9 16 -3 5 -12 7 -19 4 -8 -3 -15 -1 -17 3 -2 4 -41 20 -88
34 -50 16 -90 35 -97 46 -16 25 -62 32 -114 17 -38 -12 -46 -11 -57 3 -10 12
-12 12 -6 1 6 -11 2 -10 -13 2 -11 10 -25 18 -32 18 -7 0 -10 4 -6 9 3 6 -9 7
-30 4 -23 -4 -35 -2 -35 6 0 6 -7 11 -16 11 -14 0 -14 3 -4 15 10 12 10 18 1
29 -10 12 -7 18 13 31 23 15 27 15 48 1 25 -18 48 -21 48 -7 0 5 -8 11 -18 14
-9 4 -28 15 -42 27 -23 19 -52 24 -178 29 -13 1 -21 5 -17 10 3 5 36 7 75 4
42 -3 70 -2 70 4 0 13 -45 33 -75 33 -32 0 -75 17 -75 30 0 5 5 9 11 8 6 -2
14 3 16 9 5 15 -24 27 -84 38 -50 8 -58 -6 -16 -29 16 -9 22 -15 13 -16 -9 0
-20 4 -25 9 -6 5 -27 11 -48 14 -21 3 -41 8 -44 11 -11 11 18 35 35 28 35 -13
-15 27 -65 52 -49 25 -180 49 -189 35 -2 -4 13 -25 33 -46 21 -21 45 -49 53
-62 8 -13 38 -51 65 -85 28 -34 56 -72 62 -86 28 -64 286 -340 316 -340 6 0
24 -10 41 -23 17 -13 55 -32 84 -42 29 -11 58 -25 64 -32 14 -17 5 -16 -77 7
-43 13 -97 20 -140 20 -38 -1 -87 -2 -107 -2 -20 0 -53 6 -74 12 l-37 13 39
14 c21 8 54 14 72 14 40 -1 52 22 26 50 -20 22 -101 79 -112 79 -19 0 -122 56
-122 66 0 19 -26 64 -33 57 -4 -3 -7 -25 -7 -48 0 -26 -6 -48 -15 -55 -25 -21
-17 -47 25 -83 22 -19 40 -37 40 -42 0 -4 -6 -2 -14 4 -10 8 -16 9 -21 1 -4
-6 7 -15 24 -21 17 -6 29 -14 27 -18 -13 -20 121 -85 257 -124 42 -12 77 -26
77 -31 0 -10 -124 -1 -183 14 -60 16 -146 51 -189 77 -21 13 -43 23 -50 23
-20 1 -164 82 -204 115 -20 17 -67 58 -106 92 -38 35 -73 63 -76 63 -4 0 -43
41 -87 91 -138 158 -167 189 -180 189 -16 0 -58 46 -60 67 -3 38 -17 62 -38
69 -12 3 -29 13 -37 21 -8 8 -24 21 -35 29 -18 13 -19 16 -4 26 23 16 5 58
-22 51 -11 -3 -21 1 -25 11 -12 31 -41 16 -88 -48 -25 -34 -55 -71 -66 -81
-11 -10 -20 -24 -20 -32 0 -7 -4 -13 -9 -13 -5 0 -12 -9 -16 -19 -3 -11 -19
-34 -35 -52 -15 -18 -43 -60 -60 -94 -18 -33 -39 -67 -48 -75 -14 -13 -15 -13
-4 1 6 9 10 18 7 21 -3 2 -1 25 4 51 4 25 5 51 0 58 -4 8 -4 18 1 24 5 6 11
28 14 49 3 21 12 46 20 55 9 10 16 21 16 26 0 5 7 16 15 25 9 10 17 30 19 46
3 16 9 40 14 54 5 14 13 51 16 83 4 32 14 75 22 95 l14 37 -5 -50 c-3 -27 -7
-76 -10 -109 -3 -32 -7 -62 -10 -66 -3 -5 -1 -11 4 -15 15 -8 80 110 108 195
27 86 39 138 53 230 5 36 12 76 14 90 2 14 7 63 11 110 6 79 16 110 36 110 4
0 8 -21 8 -47 0 -27 4 -62 10 -80 5 -17 8 -67 6 -110 -2 -43 -3 -104 -4 -137
0 -38 -3 -56 -10 -51 -6 3 -11 -1 -11 -9 0 -9 -5 -16 -11 -16 -5 0 -7 -4 -4
-10 3 -5 1 -10 -6 -10 -7 0 -9 -3 -6 -7 4 -3 1 -13 -6 -21 -10 -13 -9 -14 2
-7 10 5 12 4 7 -3 -4 -7 -14 -12 -22 -12 -13 0 -19 -18 -14 -50 3 -21 8 -24
22 -13 7 6 25 13 39 16 14 4 32 19 40 34 13 27 60 75 66 69 1 -1 -6 -20 -17
-41 -22 -44 -26 -85 -8 -85 7 0 26 -13 43 -30 38 -37 112 -54 141 -33 10 7 24
11 31 9 7 -3 13 1 13 9 0 29 -21 68 -61 110 -23 24 -53 58 -68 74 -24 27 -28
28 -38 13 -6 -9 -14 -14 -17 -11 -4 3 6 33 22 65 16 32 39 82 52 109 13 28 35
68 50 91 15 23 30 62 34 91 3 28 16 78 27 110 11 32 24 73 29 92 9 37 3 92
-12 102 -17 11 -27 83 -26 179 2 124 -9 180 -33 180 -10 0 -20 4 -23 8 -7 12
7 27 24 27 20 0 14 57 -11 107 -24 48 -24 56 6 100 14 20 25 47 25 58 0 12 9
29 19 38 22 19 51 109 51 160 0 19 -9 45 -20 59 -11 14 -20 32 -20 40 0 8 -30
47 -67 85 -63 65 -108 94 -183 118 -18 6 -10 7 26 5 57 -4 77 10 82 58 2 15
10 40 18 55 7 15 14 30 14 35 0 4 16 30 35 58 19 28 35 61 36 73 0 17 3 44 11
105 3 23 -9 29 -71 35 -50 5 -80 14 -107 32 -51 35 -92 26 -156 -34 l-49 -46
-22 28 -23 28 -35 -39 c-39 -43 -54 -52 -110 -63 -29 -5 -41 -2 -65 16 l-29
23 60 55 c47 44 57 58 47 68 -18 18 -14 38 8 38 23 0 56 59 47 83 -5 13 -13
13 -49 4 -44 -10 -97 -12 -106 -2 -3 2 2 23 11 45 14 36 14 40 0 40 -38 0 11
109 49 110 4 0 19 -19 35 -42 35 -52 46 -56 62 -21 7 16 21 44 31 64 24 46 37
129 20 129 -12 0 -82 -70 -107 -108 -15 -21 -17 -22 -35 -6 -24 22 -18 39 13
39 21 0 24 4 21 35 -2 19 -8 40 -14 47 -11 14 -2 33 16 33 7 0 25 -9 39 -20
27 -22 47 -26 47 -10 0 5 -15 16 -34 24 -31 13 -34 18 -33 53 0 21 -1 77 -2
126 -2 48 -2 90 1 92 3 3 35 -22 71 -56 37 -33 67 -55 67 -47 0 7 -34 44 -75
81 -66 60 -75 73 -75 103 0 19 -7 78 -16 131 -22 139 2 149 97 41 91 -103 99
-111 99 -99 0 6 -16 29 -36 51 -20 22 -61 73 -90 112 -45 61 -54 80 -54 115 0
23 -5 45 -10 48 -6 4 -22 28 -35 55 -14 27 -41 60 -60 73 -36 25 -91 88 -100
115 -2 10 -22 25 -42 35 -21 10 -60 29 -88 44 -109 56 -124 63 -138 63 -7 0
-24 11 -37 25 -18 19 -34 25 -65 25 -23 0 -50 7 -61 15 -18 14 -18 14 8 15 14
0 48 -4 75 -10 26 -5 81 -14 121 -21 64 -10 71 -13 60 -27 -11 -12 -10 -16 1
-20 8 -3 25 -16 37 -29 21 -22 22 -22 27 -4 2 11 -2 29 -10 40 -14 20 -13 21
29 17 24 -3 51 -8 61 -11 13 -6 17 -2 17 19 0 15 6 26 13 26 25 0 111 -107
174 -217 25 -44 153 -194 153 -180 0 3 -18 41 -40 84 l-40 78 12 104 12 104
33 -38 c19 -22 59 -90 91 -152 31 -62 61 -113 65 -113 13 0 -2 41 -35 95 -31
50 -99 177 -144 267 -13 26 -46 80 -73 120 -27 40 -63 101 -81 135 -18 34 -40
69 -49 76 -9 8 -70 22 -136 32 -66 9 -127 21 -137 26 -9 5 -29 9 -45 9 -40 0
-74 11 -67 21 8 14 -24 41 -44 37 -9 -2 -16 -11 -16 -21 2 -19 -9 -20 -80 -11
-31 5 -43 10 -34 15 7 5 13 13 13 19 0 5 3 10 8 10 4 0 12 0 17 0 6 0 9 -6 8
-12 -2 -8 9 -14 27 -16 28 -2 29 -1 11 12 -10 8 -15 19 -11 25 8 14 35 14 35
1 0 -13 46 -13 71 0 25 14 24 29 -3 39 -22 8 -22 8 5 26 27 18 37 58 17 70 -6
4 -8 11 -5 16 4 5 -2 9 -12 9 -10 0 -28 3 -40 6 -18 5 -23 2 -23 -13 0 -15 -7
-19 -35 -19 -40 0 -40 0 -20 20 14 13 13 16 -5 26 -28 15 -26 34 3 25 12 -4
36 -9 52 -10 17 -2 59 -8 95 -14 36 -6 103 -16 150 -21 47 -6 109 -17 139 -26
52 -15 55 -15 83 6 l28 21 31 -68 c17 -37 56 -124 86 -193 31 -69 66 -141 77
-160 12 -19 28 -47 35 -62 8 -16 18 -28 22 -28 10 0 -2 36 -40 129 -17 40 -31
81 -31 90 0 10 -15 42 -33 72 -35 58 -83 155 -116 230 -16 39 -18 54 -10 90 6
23 11 86 12 140 1 69 5 95 14 92 13 -5 101 -216 132 -318 12 -38 37 -100 56
-137 19 -37 35 -75 35 -85 0 -10 13 -45 28 -78 16 -33 36 -76 45 -95 19 -39
23 -27 6 17 -25 62 -119 344 -119 356 0 6 -14 39 -31 72 -71 140 -133 300
-133 348 l-1 47 -348 0 -347 0 6 -27 c9 -37 9 -34 0 -70 -4 -18 -11 -33 -14
-33 -4 0 -8 -59 -9 -130 -1 -81 -6 -136 -13 -145 -6 -7 -16 -55 -21 -107 -6
-51 -15 -122 -20 -158 -28 -181 -46 -369 -34 -358 11 10 35 -11 35 -29 0 -11
-7 -14 -21 -10 -15 4 -28 -2 -46 -24 -28 -32 -53 -38 -53 -11 0 14 27 224 60
462 43 315 54 390 71 495 10 66 19 126 19 133 0 9 -274 12 -1335 12 l-1335 0
0 -4125z m2958 4025 c14 -8 14 -10 2 -11 -8 0 -31 -2 -50 -5 -38 -4 -90 12
-90 29 0 12 113 2 138 -13z m-78 -475 c0 -8 -7 -15 -15 -15 -26 0 -18 20 13
29 1 1 2 -6 2 -14z m-173 -148 c-7 -21 -32 -13 -35 11 -3 21 -1 22 18 12 12
-6 19 -17 17 -23z m47 -33 c18 -7 21 -30 6 -39 -13 -8 -40 13 -40 31 0 15 10
17 34 8z m170 -42 c-31 -4 -44 6 -25 18 9 5 22 3 33 -3 17 -11 17 -12 -8 -15z
m61 -2 c3 -5 2 -10 -4 -10 -5 0 -13 5 -16 10 -3 6 -2 10 4 10 5 0 13 -4 16
-10z m-92 -16 c25 -6 39 -24 18 -24 -15 0 -23 -51 -10 -66 9 -11 9 -18 1 -26
-8 -8 -14 -4 -22 16 -5 15 -10 36 -10 46 0 11 -11 27 -25 36 -31 20 -33 39 -2
30 12 -4 34 -9 50 -12z m432 -39 c19 -29 35 -59 35 -66 0 -7 12 -32 26 -56 31
-54 79 -172 78 -193 0 -8 -4 -26 -7 -40 -3 -14 -9 -52 -13 -85 l-6 -60 -35 40
c-19 22 -46 58 -61 80 -14 22 -41 59 -60 83 -19 23 -37 55 -42 70 -4 16 -13
25 -21 23 -8 -2 -22 -6 -32 -8 -14 -5 -16 -2 -9 18 5 13 19 25 31 27 21 3 31
32 11 32 -5 0 -10 20 -10 44 0 35 -5 49 -22 61 -16 12 -19 19 -10 22 23 9 1
23 -36 23 -48 0 -83 10 -76 21 7 11 115 0 132 -14 10 -8 14 -5 18 10 5 16 14
21 40 21 29 0 38 -6 69 -53z m-597 7 c2 -7 -6 -12 -17 -12 -21 0 -27 11 -14
24 9 9 26 2 31 -12z m271 -6 c10 -12 8 -13 -8 -9 -12 3 -18 9 -15 14 7 12 10
11 23 -5z m-19 -78 c0 -10 -4 -18 -9 -18 -12 0 -42 46 -34 53 10 10 43 -17 43
-35z m80 22 c0 -5 -9 -10 -21 -10 -11 0 -17 5 -14 10 3 6 13 10 21 10 8 0 14
-4 14 -10z m-256 -11 c-4 -8 -1 -8 12 -1 15 8 25 5 49 -17 17 -15 37 -36 45
-46 14 -18 14 -19 -2 -7 -20 16 -58 0 -58 -23 0 -11 -11 -15 -37 -14 -32 0
-34 2 -17 9 30 12 36 24 24 54 -6 16 -17 26 -29 26 -14 0 -19 5 -15 15 4 8 13
15 21 15 8 0 11 -5 7 -11z m-43 -84 c-1 -15 -24 -12 -29 3 -3 9 2 13 12 10 10
-1 17 -7 17 -13z m249 -45 c0 -5 -7 -7 -15 -4 -8 4 -15 8 -15 10 0 2 7 4 15 4
8 0 15 -4 15 -10z m98 -7 c-10 -2 -28 -2 -40 0 -13 2 -5 4 17 4 22 1 32 -1 23
-4z m-370 -50 c-10 -2 -26 -2 -35 0 -10 3 -2 5 17 5 19 0 27 -2 18 -5z m222
-548 c0 -8 10 -17 23 -21 12 -3 29 -13 39 -21 25 -22 103 -5 103 22 0 17 8 20
54 23 95 6 144 -34 162 -131 5 -29 12 -64 15 -79 5 -21 2 -27 -18 -33 -41 -13
-54 -32 -50 -70 5 -41 40 -71 73 -62 18 5 20 2 15 -16 -3 -12 -6 -34 -6 -49 0
-18 -5 -28 -15 -28 -8 0 -15 4 -15 9 0 5 -11 9 -25 9 -14 0 -41 12 -61 27 -19
15 -41 28 -47 29 -7 2 -20 7 -30 11 -20 8 -43 -7 -33 -23 3 -5 32 -22 63 -38
62 -30 83 -46 83 -64 0 -12 -51 -6 -79 10 -14 7 -67 -1 -132 -21 -28 -9 -45
-8 -73 1 -20 6 -37 15 -37 18 -8 39 -4 54 15 64 11 6 24 16 28 21 9 15 -10 47
-27 47 -19 0 -19 9 0 48 13 25 14 38 4 79 -20 80 -37 113 -59 113 -16 0 -20 7
-22 33 -2 49 1 70 13 94 12 22 39 21 39 -2z m-25 -165 c3 -5 -1 -10 -10 -10
-9 0 -13 5 -10 10 3 6 8 10 10 10 2 0 7 -4 10 -10z m-755 -414 c0 -22 -11 -46
-21 -46 -5 0 -9 14 -9 30 0 20 5 30 15 30 8 0 15 -6 15 -14z m1160 -123 c-1
-5 -19 -21 -40 -38 -22 -16 -42 -40 -46 -52 -8 -29 -32 -49 -44 -37 -6 6 0 20
17 38 20 22 23 30 12 37 -17 10 -7 20 44 40 50 20 57 21 57 12z m-380 -55 c25
-15 40 -28 35 -28 -27 0 -44 -104 -25 -141 13 -23 4 -24 -41 -4 -60 26 -91 63
-98 115 0 6 -7 10 -15 10 -20 0 -27 25 -12 45 11 16 15 16 49 1 20 -8 37 -12
37 -9 0 3 7 -1 17 -8 15 -13 15 -12 5 8 -7 12 -17 25 -22 28 -6 3 -10 10 -10
15 0 12 26 2 80 -32z m-710 -172 c0 -8 -7 -16 -15 -20 -13 -4 -14 -2 -5 14 13
23 20 26 20 6z m-425 -127 c36 -17 65 -34 65 -39 0 -4 -30 3 -67 16 -60 21
-79 23 -168 18 -55 -3 -103 -9 -108 -13 -7 -7 37 -33 76 -45 11 -4 21 -15 24
-26 3 -12 19 -28 35 -36 40 -21 23 -38 -23 -23 -19 5 -42 15 -52 20 -10 5 -22
7 -27 4 -4 -3 -10 0 -12 5 -2 6 -13 2 -25 -10 -12 -11 -29 -20 -37 -20 -8 0
-17 -4 -20 -9 -3 -5 -15 -7 -27 -4 -26 7 -12 21 26 25 23 2 31 9 33 26 5 31
-16 79 -39 96 -17 12 -13 15 43 29 35 8 102 16 150 16 78 1 95 -2 153 -30z
m224 -167 c42 -40 66 -69 54 -63 -11 6 -29 22 -40 35 -10 13 -46 45 -80 70
-71 53 -92 78 -43 50 18 -10 67 -52 109 -92z m1189 71 c-10 -2 -18 -9 -18 -14
0 -5 -4 -9 -10 -9 -5 0 -7 7 -4 15 4 8 16 14 28 14 16 -1 17 -2 4 -6z m-1090
-178 c-3 -3 -9 2 -12 12 -6 14 -5 15 5 6 7 -7 10 -15 7 -18z m-360 -101 c15
-7 33 -14 39 -14 7 0 52 -11 99 -25 47 -14 95 -25 107 -25 11 0 59 -24 106
-53 47 -29 97 -58 111 -65 14 -7 58 -37 98 -66 62 -46 71 -55 57 -64 -12 -6
-14 -11 -6 -16 6 -4 11 -11 11 -16 0 -6 -16 -1 -35 10 -33 19 -35 19 -35 2 0
-10 14 -31 30 -47 35 -33 38 -45 10 -38 -12 3 -22 -1 -26 -10 -7 -20 41 -107
94 -169 23 -28 41 -53 38 -55 -6 -7 -46 20 -46 32 0 5 -12 21 -25 34 -14 13
-25 32 -25 42 0 12 -7 19 -19 19 -27 0 -74 47 -67 67 4 9 3 19 -2 22 -4 3 -21
23 -37 45 -30 39 -103 80 -140 78 -11 -1 -47 12 -80 28 -38 18 -97 35 -155 45
-107 17 -160 12 -160 -14 0 -19 58 -51 93 -51 30 0 126 -36 157 -58 14 -10 57
-35 95 -56 81 -43 129 -82 120 -96 -3 -6 1 -10 9 -10 8 0 18 -5 22 -12 5 -7 2
-9 -7 -3 -8 4 -1 -4 15 -19 26 -23 27 -26 10 -33 -10 -4 -19 -2 -22 5 -4 14
-61 44 -142 74 -30 12 -66 28 -79 37 -13 8 -49 16 -81 17 -66 1 -80 8 -80 35
0 19 -21 22 -48 5 -7 -4 -12 -4 -11 1 3 20 -2 27 -11 13 -6 -10 -10 -11 -10
-2 0 6 -12 12 -27 13 -24 0 -25 1 -8 8 11 5 27 6 35 4 13 -4 13 -3 0 5 -8 6
-17 9 -21 6 -4 -2 -13 3 -20 12 -10 13 -10 17 2 25 8 5 10 9 4 10 -5 1 -17 2
-25 3 -8 1 -25 -4 -37 -11 -12 -7 -40 -14 -64 -15 -33 -2 -42 1 -44 14 -2 11
2 15 12 11 11 -4 14 -2 11 8 -3 8 -9 13 -14 12 -5 -1 -8 16 -8 38 2 35 0 40
-20 37 -11 -2 -24 -7 -28 -13 -5 -6 -8 -5 -8 2 0 7 -7 10 -15 7 -12 -5 -15 2
-15 29 0 63 -5 67 -61 46 -27 -10 -49 -15 -49 -10 0 13 105 117 139 139 14 9
32 25 40 36 13 17 23 18 118 12 57 -4 116 -14 131 -22z m498 -21 c-7 -7 -26 7
-26 19 0 6 6 6 15 -2 9 -7 13 -15 11 -17z m1098 -62 c25 -26 27 -34 21 -69 -5
-32 -13 -43 -35 -52 -16 -6 -41 -24 -56 -39 l-28 -28 -22 21 c-12 12 -25 39
-28 61 -5 38 -4 42 44 80 27 22 50 43 50 48 0 16 28 5 54 -22z m-164 -453 c0
-27 -8 -56 -22 -78 l-22 -35 -6 25 c-4 16 -13 24 -24 24 -9 -1 -15 0 -13 3 5
4 -4 40 -18 77 -7 16 -4 17 23 11 17 -3 39 -2 49 4 29 17 33 13 33 -31z
m-1025 -156 c6 -4 16 -15 24 -24 12 -17 11 -17 -20 -6 -42 14 -99 58 -99 76 0
11 46 -11 95 -46z m170 -368 c114 -26 175 -47 193 -66 48 -51 58 -59 73 -55 9
3 22 1 28 -3 7 -4 -22 -14 -64 -23 -42 -10 -89 -26 -105 -37 -17 -11 -43 -29
-60 -40 -30 -21 -98 -27 -115 -11 -6 5 -18 11 -27 13 -14 3 -15 6 -3 21 7 10
19 20 27 21 7 1 23 7 35 14 12 7 35 12 52 12 16 0 42 5 58 11 l28 12 -25 7
c-28 8 -156 2 -180 -7 -22 -10 -53 -12 -72 -7 -37 11 -15 30 60 55 97 32 101
51 15 63 -36 5 -64 14 -67 22 -7 20 60 18 149 -2z m443 -85 c30 -10 47 -33 37
-50 -3 -4 -20 0 -37 10 -26 16 -54 19 -87 8 -3 -1 -6 2 -6 8 0 5 9 11 20 13
11 1 24 7 29 12 12 12 7 12 44 -1z m257 -100 c12 -18 -1 -20 -36 -5 l-34 15
32 1 c17 0 35 -5 38 -11z m-48 -41 c7 -5 10 -14 7 -19 -4 -7 -104 37 -104 46
0 7 85 -17 97 -27z m-261 -23 c10 -8 14 -15 7 -15 -7 0 -10 -6 -7 -14 3 -8 -3
-19 -15 -26 -12 -6 -21 -8 -21 -4 0 4 -9 -1 -20 -11 -11 -10 -20 -13 -20 -7 0
6 5 12 12 14 7 3 9 12 4 24 -7 18 -8 18 -20 2 -7 -10 -18 -18 -24 -18 -6 0 4
16 21 35 35 38 53 42 83 20z m174 0 c27 -14 60 -55 44 -55 -4 0 -24 16 -45 35
-43 39 -43 43 1 20z m-160 -116 c0 -11 9 -34 21 -50 23 -33 19 -36 -16 -13
-22 14 -24 14 -34 -5 -6 -11 -11 -38 -11 -61 0 -23 -4 -39 -8 -36 -5 3 -7 19
-4 36 2 17 0 30 -6 30 -13 0 -7 39 13 86 16 38 45 46 45 13z m1025 -153 c-2
-45 -9 -110 -15 -146 -7 -36 -15 -83 -19 -105 l-7 -40 -12 40 c-14 46 -16 171
-3 179 7 5 18 51 22 93 0 5 4 13 9 18 4 6 6 19 4 29 -4 26 6 42 17 25 4 -7 6
-49 4 -93z m-966 38 c3 -16 1 -17 -13 -5 -19 16 -21 34 -3 29 6 -3 14 -13 16
-24z m854 -9 c4 -8 3 -16 -1 -19 -4 -3 -9 4 -9 15 -2 23 3 25 10 4z m907
-1000 c0 -9 -6 -12 -15 -9 -8 4 -12 10 -9 15 8 14 24 10 24 -6z m855 -475 c-3
-5 -11 -10 -16 -10 -6 0 -7 5 -4 10 3 6 11 10 16 10 6 0 7 -4 4 -10z m-316
-56 c2 -2 -17 -4 -43 -4 -30 0 -45 4 -41 10 6 9 72 4 84 -6z m151 -134 c8 -9
25 -23 37 -29 44 -22 88 -146 61 -168 -20 -17 -68 -27 -68 -14 0 14 -23 14
-38 -1 -13 -13 -62 -20 -62 -9 0 12 41 30 75 33 25 2 31 8 33 31 l3 29 -63 -5
c-89 -7 -178 -35 -243 -77 -51 -33 -128 -75 -137 -75 -4 0 -7 -4 -5 -8 5 -19
-162 -104 -177 -90 -3 4 -6 1 -6 -5 0 -7 -3 -11 -7 -11 -22 4 -43 -2 -38 -10
3 -5 -4 -12 -15 -16 -11 -3 -20 -10 -20 -14 0 -11 -59 -35 -67 -27 -3 3 -12 1
-20 -5 -19 -16 -97 -13 -133 6 -16 8 -32 14 -34 13 -11 -7 -45 52 -41 71 3 15
-4 25 -26 36 -16 9 -27 20 -24 26 7 10 20 5 50 -22 20 -17 94 -39 118 -35 52
10 101 30 126 52 36 30 75 39 93 21 9 -10 22 -11 47 -5 25 7 31 12 22 21 -6 6
-11 20 -11 32 -1 22 -45 59 -60 50 -6 -3 -10 -15 -10 -26 0 -26 -19 -24 -29 4
-7 18 -24 28 -71 41 -35 10 -78 26 -96 37 -19 10 -38 18 -42 17 -21 -5 -121
17 -152 33 -19 11 -38 19 -43 19 -4 0 -19 11 -33 23 -31 29 -66 25 -89 -9 -16
-24 -45 -33 -45 -13 0 6 -15 9 -35 8 -24 -3 -44 4 -66 20 -31 23 -32 25 -11
32 11 4 51 6 88 3 42 -3 70 -1 74 6 9 14 75 24 97 15 10 -5 20 -9 23 -10 27
-7 80 -30 80 -36 0 -3 11 -4 25 -1 14 2 44 -3 67 -13 41 -16 54 -20 107 -31
13 -3 33 -10 44 -15 11 -6 49 -12 86 -13 36 -1 91 -8 121 -15 73 -16 218 -5
280 21 25 11 56 24 70 30 l25 10 -29 24 c-36 31 -29 38 23 24 36 -9 45 -8 65
7 12 10 21 24 18 32 -7 20 69 5 88 -19z m-1785 -124 c34 -23 130 -46 222 -52
l89 -7 27 37 c16 20 32 36 37 36 5 0 16 -17 25 -38 11 -24 35 -50 68 -73 33
-22 52 -42 52 -54 0 -11 -5 -20 -12 -20 -6 0 -15 -3 -19 -7 -13 -14 -71 -8
-171 17 -187 47 -275 84 -372 157 l-24 18 29 0 c16 0 38 -6 49 -14z m-6 -90
c13 -7 20 -16 15 -18 -13 -8 -54 9 -54 22 0 13 10 12 39 -4z m160 -90 c22 -14
43 -26 47 -26 3 0 17 -9 31 -20 14 -11 21 -20 16 -20 -12 0 -169 86 -204 112
-21 15 -18 15 22 -1 26 -11 65 -31 88 -45z m1583 34 c14 0 18 -8 18 -32 -1
-44 -16 -109 -28 -117 -5 -3 -12 -15 -15 -26 -3 -13 -5 -8 -6 13 -1 28 -4 32
-20 27 -15 -4 -19 -1 -17 12 2 10 -1 21 -6 24 -11 7 11 59 24 59 5 0 6 5 3 10
-3 6 -3 20 0 31 5 15 10 18 18 10 6 -6 19 -11 29 -11z m-1732 -65 c36 -19 59
-34 52 -35 -7 0 -43 16 -79 35 -36 19 -60 35 -52 35 8 -1 43 -16 79 -35z
m1963 5 c-5 -20 -33 -49 -33 -34 1 25 14 54 25 54 8 0 11 -8 8 -20z m337 -69
c25 -11 57 -21 71 -21 25 0 99 -26 99 -34 0 -3 -33 -2 -72 1 -40 3 -89 1 -108
-4 -32 -9 -35 -12 -36 -49 0 -21 -2 -73 -4 -114 -2 -41 0 -88 5 -104 l8 -29
-36 27 c-31 24 -37 35 -46 94 -6 37 -12 87 -13 112 -3 39 -6 45 -27 48 -13 2
-39 1 -57 -3 -32 -5 -34 -8 -34 -45 0 -53 -16 -51 -23 2 -6 48 1 57 73 84 25
9 52 24 60 34 24 27 52 39 74 30 12 -5 41 -17 66 -29z m-2172 -1 c45 -24 77
-48 71 -54 -2 -2 -33 13 -69 35 -67 40 -68 55 -2 19z m1527 1 c-3 -5 -1 -12 5
-16 15 -9 12 -25 -5 -25 -8 0 -15 -5 -15 -11 0 -5 -8 -9 -17 -7 -10 1 -23 -1
-30 -5 -8 -5 -8 1 2 20 8 15 24 33 37 40 28 15 31 16 23 4z m238 -66 c29 -12
37 -22 43 -51 8 -43 -4 -57 -39 -49 -43 11 -86 96 -54 108 6 3 13 6 13 6 1 1
18 -6 37 -14z m-1578 -15 c26 -11 56 -20 67 -20 11 0 40 -18 65 -40 25 -22 52
-40 59 -40 28 0 174 -267 174 -319 0 -21 -25 -10 -45 18 -60 87 -173 219 -268
314 -59 59 -106 107 -103 107 2 0 25 -9 51 -20z m2345 -14 l35 -16 -54 5 c-33
3 -61 11 -70 21 -15 15 -13 16 19 11 19 -3 51 -12 70 -21z m-2360 -36 c8 -5
11 -12 8 -16 -4 -3 -14 1 -23 10 -18 17 -9 21 15 6z m-54 -26 c19 -9 44 -14
56 -11 15 4 34 -3 63 -25 41 -32 136 -137 158 -174 7 -11 22 -35 33 -53 25
-37 69 -169 60 -179 -4 -3 -15 5 -26 19 -130 166 -204 250 -295 337 -106 100
-116 118 -49 86z m2331 0 c-3 -3 -12 -4 -19 -1 -8 3 -5 6 6 6 11 1 17 -2 13
-5z m-868 -120 c-23 -45 -37 -35 -21 14 25 77 26 78 30 43 2 -19 -2 -45 -9
-57z m1531 -30 c0 -18 -27 -126 -45 -182 -14 -41 -14 -43 8 -52 17 -7 18 -9 5
-9 -10 -1 -25 10 -33 23 -20 30 -8 123 27 218 10 27 38 29 38 2z m43 -19 c-7
-19 -19 -19 -26 -1 -3 8 -1 17 6 19 18 6 27 -2 20 -18z m-1298 -45 c3 -5 1
-10 -4 -10 -6 0 -11 5 -11 10 0 6 2 10 4 10 3 0 8 -4 11 -10z m263 -32 c16
-16 15 -49 0 -45 -7 1 -18 11 -25 22 -18 31 0 48 25 23z m-768 -108 c0 -5 -5
-10 -11 -10 -5 0 -7 5 -4 10 3 6 8 10 11 10 2 0 4 -4 4 -10z m1680 -135 c0 -8
-6 -15 -14 -15 -17 0 -28 14 -19 24 12 12 33 6 33 -9z m20 -130 c0 -8 -4 -15
-10 -15 -5 0 -10 7 -10 15 0 8 5 15 10 15 6 0 10 -7 10 -15z m-1025 -55 c-5
-8 -11 -8 -17 -2 -6 6 -7 16 -3 22 5 8 11 8 17 2 6 -6 7 -16 3 -22z m961 16
c18 -14 18 -15 -10 -26 -33 -12 -56 -7 -56 13 0 30 33 36 66 13z m38 -70 l34
-34 -24 -11 c-13 -6 -24 -18 -24 -27 0 -17 -26 -68 -49 -96 -7 -10 -11 -24 -8
-32 3 -8 -3 -22 -14 -32 -10 -9 -19 -25 -19 -34 0 -9 -6 -24 -13 -35 -12 -16
-15 -11 -20 45 -9 86 -9 138 2 144 4 3 11 18 14 33 5 24 70 113 83 113 3 0 20
-15 38 -34z m-764 -365 c0 -14 -5 -18 -20 -14 -21 5 -25 15 -13 26 13 14 33 6
33 -12z m55 -90 c7 -12 -12 -24 -25 -16 -11 7 -4 25 10 25 5 0 11 -4 15 -9z
m-219 -68 c-10 -10 -19 5 -10 18 6 11 8 11 12 0 2 -7 1 -15 -2 -18z m199 -73
c0 -8 -8 -16 -17 -18 -13 -2 -18 3 -18 18 0 15 5 20 18 18 9 -2 17 -10 17 -18z"/>
<path d="M3245 7330 c-3 -5 -1 -10 4 -10 6 0 11 5 11 10 0 6 -2 10 -4 10 -3 0
-8 -4 -11 -10z"/>
<path d="M2046 5030 c5 -5 25 -13 44 -16 32 -7 34 -6 21 9 -7 9 -27 17 -44 17
-20 0 -28 -3 -21 -10z"/>
<path d="M2270 4900 c0 -5 5 -10 11 -10 5 0 7 5 4 10 -3 6 -8 10 -11 10 -2 0
-4 -4 -4 -10z"/>
<path d="M4710 1771 c0 -14 37 -33 83 -42 32 -5 36 -4 25 6 -7 7 -26 17 -43
23 -16 5 -38 13 -47 17 -11 4 -18 3 -18 -4z"/>
<path d="M4851 1721 c-8 -6 -9 -11 -3 -15 6 -3 14 -1 17 5 9 14 2 20 -14 10z"/>
<path d="M3524 8233 c4 -9 13 -37 20 -62 44 -152 70 -230 85 -256 10 -16 24
-50 31 -75 7 -25 17 -49 22 -54 4 -6 8 -20 8 -32 0 -13 4 -25 9 -28 10 -6 5
16 -54 234 -20 74 -34 145 -32 157 2 12 1 20 -3 18 -4 -3 -20 22 -34 55 -16
36 -33 60 -43 60 -10 0 -13 -6 -9 -17z"/>
<path d="M3600 8213 c0 -33 19 -85 20 -58 1 6 5 29 9 53 7 37 6 42 -10 42 -15
0 -19 -8 -19 -37z"/>
<path d="M3667 8218 c3 -18 12 -42 20 -53 12 -19 13 -18 13 7 0 34 -17 78 -30
78 -5 0 -7 -13 -3 -32z"/>
<path d="M3773 8237 c2 -7 17 -64 33 -127 16 -63 30 -108 32 -99 3 16 -35 216
-44 231 -8 13 -27 9 -21 -5z"/>
<path d="M3911 8203 c-7 -27 -13 -59 -13 -73 -1 -52 -19 -174 -27 -184 -5 -6
-9 -44 -10 -83 0 -68 -4 -98 -19 -148 -4 -17 -8 -14 -23 20 -23 50 -24 20 -3
-46 15 -44 15 -62 5 -132 -6 -44 -16 -84 -22 -87 -6 -4 -7 -18 -4 -33 8 -31
-14 -197 -26 -197 -4 0 -13 8 -18 18 -16 26 -13 9 5 -34 14 -33 14 -48 4 -114
-14 -81 -25 -104 -40 -80 -8 13 -10 13 -10 -2 0 -9 5 -28 11 -42 9 -18 9 -46
1 -108 -33 -250 -44 -313 -54 -325 -6 -7 -8 -23 -5 -35 4 -13 -1 -64 -9 -113
-9 -50 -17 -103 -18 -120 -11 -124 -20 -173 -32 -193 -8 -12 -12 -27 -9 -32
11 -18 -17 -184 -33 -197 -10 -9 -12 -16 -5 -25 11 -14 0 -166 -16 -208 -14
-39 -22 -120 -11 -120 11 0 134 80 169 109 13 12 29 21 35 21 6 0 4 4 -4 10
-12 7 -12 12 4 29 14 16 17 29 12 68 -5 33 -2 56 8 75 7 14 14 54 14 90 0 34
5 82 10 105 5 22 8 53 6 68 -1 15 1 35 6 44 19 38 30 92 31 147 1 32 7 74 15
92 13 31 17 64 29 201 3 35 12 92 21 125 9 34 18 84 20 111 2 28 5 70 7 95 2
25 9 71 16 103 7 31 13 91 15 131 1 47 7 80 16 91 10 12 15 43 16 86 1 38 9
99 17 136 20 84 33 167 47 303 6 58 13 110 14 115 2 6 4 13 5 17 1 4 8 26 16
48 8 22 15 61 16 87 1 27 5 68 10 93 5 25 11 56 13 70 3 14 8 35 12 48 6 22 5
22 -98 22 l-105 0 -12 -47z"/>
<path d="M4575 8238 c-11 -29 -9 -83 2 -83 24 0 25 -15 1 -15 -20 0 -27 -6
-31 -27 -6 -32 6 -62 17 -44 8 12 53 15 59 4 2 -5 1 -19 -4 -33 -4 -14 -7 -19
-8 -12 -2 26 -19 1 -31 -45 -11 -43 -39 -188 -40 -204 0 -4 8 -9 18 -11 18 -5
18 -9 5 -79 -7 -41 -20 -99 -28 -129 -8 -30 -17 -98 -20 -150 -3 -52 -9 -106
-12 -118 -11 -47 -23 2 -23 97 0 67 -3 92 -11 84 -12 -12 -51 -241 -43 -254 2
-4 0 -16 -5 -26 -13 -24 -33 -160 -37 -251 -3 -68 -2 -73 15 -67 11 3 22 1 26
-5 10 -17 -15 -41 -36 -35 -13 4 -19 1 -19 -9 0 -9 9 -16 20 -16 13 0 20 -7
20 -20 0 -17 -5 -19 -25 -14 -21 5 -25 3 -25 -16 0 -16 4 -20 19 -15 12 3 21
0 24 -9 7 -18 -11 -32 -35 -28 -25 4 -23 -24 2 -31 12 -3 20 -14 20 -26 0 -18
-5 -21 -26 -19 -15 2 -29 -3 -31 -9 -3 -8 4 -13 15 -13 21 0 32 -17 25 -37 -3
-9 -10 -10 -24 -3 -15 8 -19 7 -19 -5 0 -9 9 -15 21 -15 19 0 20 -4 14 -52 -4
-29 -9 -69 -11 -88 -2 -19 -10 -69 -19 -110 -8 -41 -17 -97 -20 -125 -3 -27
-17 -115 -31 -195 -13 -80 -27 -158 -29 -175 -6 -46 -13 -85 -25 -140 -5 -27
-17 -95 -25 -150 -9 -55 -20 -116 -26 -136 -5 -20 -9 -52 -9 -72 0 -20 -5 -48
-11 -64 -19 -51 -28 -117 -17 -130 21 -26 37 -13 43 35 4 26 11 63 16 83 5 20
18 92 29 160 11 68 26 162 35 209 15 82 49 297 81 510 8 58 19 125 24 150 5
25 14 74 20 110 6 36 15 88 20 115 16 89 34 199 37 230 1 17 10 68 19 115 8
47 24 146 35 220 11 74 24 160 29 190 5 30 16 105 24 165 8 61 20 124 26 140
15 38 29 115 36 185 4 48 14 110 54 331 6 31 13 76 15 100 3 24 8 54 11 67 4
21 1 22 -56 22 -39 0 -62 -4 -65 -12z m-145 -1308 c0 -5 -4 -10 -10 -10 -5 0
-10 5 -10 10 0 6 5 10 10 10 6 0 10 -4 10 -10z"/>
<path d="M4857 8244 c-12 -12 -8 -37 11 -57 13 -15 14 -21 4 -24 -28 -10 -39
-34 -45 -97 -3 -35 -13 -92 -22 -125 -8 -34 -19 -96 -24 -138 -10 -91 -35
-262 -57 -383 -10 -57 -11 -86 -4 -88 6 -2 17 -10 24 -18 8 -8 22 -14 31 -14
13 0 16 -6 12 -22 -11 -45 -19 -166 -12 -178 11 -18 34 7 28 33 -2 13 2 9 11
-10 16 -36 14 -35 136 -37 41 -1 82 -6 90 -11 8 -5 25 -8 37 -7 12 2 35 -4 52
-12 16 -9 37 -13 45 -10 9 4 23 1 31 -6 13 -10 19 -9 35 5 20 18 20 17 20 -12
0 -36 -9 -47 -27 -32 -7 6 -23 9 -35 6 -11 -3 -29 -2 -39 4 -21 11 -36 -5 -17
-18 18 -11 130 -31 145 -26 7 3 13 18 13 34 0 22 5 29 20 29 12 0 17 5 14 14
-3 7 1 20 9 28 13 13 13 16 -4 26 -16 10 -18 20 -13 59 9 69 17 74 94 63 36
-5 105 -14 155 -20 49 -6 121 -20 160 -31 38 -10 83 -19 100 -19 48 0 70 -22
72 -72 1 -24 4 -52 7 -63 2 -11 5 -29 6 -40 1 -16 4 -14 12 8 8 22 7 35 -3 53
-9 18 -10 27 -1 36 8 8 14 5 21 -15 6 -15 15 -27 21 -27 5 0 10 -6 10 -13 0
-8 16 -22 35 -33 42 -22 67 -56 64 -87 -1 -12 1 -31 5 -42 5 -11 12 -32 17
-46 6 -14 23 -40 39 -57 21 -23 30 -46 35 -87 6 -43 14 -62 36 -83 16 -15 29
-33 29 -40 0 -7 11 -17 25 -22 14 -5 25 -15 25 -21 0 -7 -9 -9 -25 -5 -18 5
-25 2 -25 -9 0 -10 10 -15 34 -15 39 0 55 -16 66 -64 11 -49 -6 -71 -51 -64
-19 3 -43 2 -54 -2 -21 -7 -46 3 -77 33 -10 9 -22 17 -28 17 -5 0 -10 14 -10
30 0 20 -5 30 -15 30 -9 0 -20 11 -25 24 -5 13 -17 30 -28 37 -10 8 -23 28
-29 44 -7 22 -16 30 -34 30 -25 0 -26 4 -16 68 4 27 3 28 -27 21 -17 -3 -33
-8 -35 -10 -2 -2 -11 -41 -20 -86 l-17 -83 -40 0 c-21 1 -136 16 -254 34 -118
18 -276 41 -350 51 -153 21 -279 41 -458 71 -68 12 -127 17 -132 13 -11 -12
-77 -421 -76 -469 1 -37 3 -39 41 -47 94 -19 88 -14 82 -66 -3 -26 -15 -101
-26 -166 -19 -107 -19 -122 -6 -143 8 -12 15 -31 15 -43 0 -23 25 -27 37 -5 8
13 14 10 37 -14 l29 -30 17 21 c15 19 21 20 46 10 20 -8 50 -9 94 -3 75 10 90
1 90 -55 0 -38 14 -51 35 -34 8 7 25 10 37 7 11 -3 31 -1 42 6 12 7 70 13 136
15 193 4 208 3 245 -19 19 -11 39 -18 45 -14 6 4 77 2 158 -5 l147 -11 64 -67
c35 -37 86 -90 112 -117 27 -28 49 -57 49 -66 0 -16 47 -67 57 -61 3 2 15 -10
25 -27 17 -26 18 -31 5 -31 -9 0 -19 5 -22 10 -3 6 -31 10 -60 10 -64 0 -75
-12 -78 -93 -1 -28 -5 -56 -9 -62 -3 -5 -15 -55 -27 -110 -12 -55 -28 -123
-36 -151 -8 -28 -15 -57 -15 -65 0 -8 -5 -30 -10 -50 l-10 -37 -63 3 c-52 2
-147 15 -147 19 3 28 33 112 52 141 36 59 39 73 24 109 -39 93 -295 118 -359
34 -12 -16 -37 -46 -55 -66 -33 -37 -34 -38 -29 -113 l5 -76 -94 1 c-52 1 -98
6 -102 11 -4 6 -46 10 -94 10 -51 0 -92 5 -98 11 -16 16 15 182 38 207 11 13
28 18 57 16 22 -1 49 2 60 8 11 6 34 9 50 6 23 -4 27 -3 19 6 -6 7 -46 15 -88
18 -74 6 -78 5 -106 -22 -16 -15 -32 -41 -35 -56 -12 -55 -25 -29 -25 51 0 79
-9 97 -36 70 -6 -6 -34 -4 -79 5 -39 8 -88 15 -109 15 -38 0 -38 -1 -22 -19
13 -14 26 -17 59 -14 32 4 46 1 56 -11 19 -23 11 -27 -33 -15 -62 17 -73 5
-32 -35 39 -36 44 -60 21 -94 -14 -18 -22 -21 -63 -16 -98 11 -92 5 -92 94 0
74 2 80 20 80 11 0 23 -7 26 -15 4 -8 16 -15 28 -14 20 0 20 1 1 9 -27 11 -70
58 -61 67 4 4 16 2 26 -5 36 -22 21 6 -22 43 -58 49 -97 70 -111 56 -7 -7 -5
-18 6 -35 13 -20 17 -55 19 -163 l3 -138 -65 1 c-36 1 -75 5 -87 9 -19 6 -22
3 -27 -32 -4 -21 -14 -74 -24 -118 -22 -98 -19 -119 13 -111 13 3 25 1 27 -5
2 -6 64 -20 138 -30 83 -13 138 -25 144 -34 8 -10 36 -15 89 -16 73 -2 80 0
103 24 14 15 26 27 28 27 2 0 23 -15 45 -34 32 -27 54 -36 99 -42 31 -3 68
-12 82 -19 32 -16 50 -9 50 19 l0 23 68 -16 c37 -9 74 -24 82 -34 14 -17 17
-18 29 -3 17 21 41 20 56 -1 12 -16 14 -16 39 0 19 13 30 15 43 7 10 -5 40
-13 68 -18 42 -6 50 -11 50 -30 0 -12 3 -22 8 -22 4 0 12 0 17 0 6 0 10 9 10
20 0 24 15 27 24 5 4 -12 10 -14 26 -5 20 11 73 8 190 -11 36 -5 77 -8 92 -5
15 3 28 0 30 -5 2 -6 26 -15 53 -20 54 -10 111 -34 133 -55 7 -7 37 -28 66
-45 29 -18 58 -40 65 -50 10 -17 8 -19 -21 -19 -59 0 -210 20 -229 30 -10 6
-49 13 -86 16 -158 13 -223 20 -298 34 -33 6 -79 10 -102 10 -23 -1 -55 6 -71
14 -17 9 -55 15 -88 15 -78 -1 -190 15 -239 35 -22 8 -62 15 -90 16 -27 0 -59
7 -69 15 -28 21 -125 20 -133 -1 -6 -15 -7 -15 -17 -1 -7 8 -25 17 -41 19 -27
3 -30 0 -31 -27 0 -16 5 -38 12 -48 6 -10 10 -26 7 -36 -6 -24 20 -43 50 -36
18 5 23 12 20 25 -4 15 -1 18 16 13 25 -6 28 -28 5 -37 -8 -3 -13 -10 -10 -15
3 -4 -3 -16 -14 -26 -21 -19 -28 -79 -10 -90 6 -3 10 -21 10 -38 1 -34 20 -67
39 -67 6 0 11 7 11 15 0 23 44 29 79 11 17 -9 31 -22 31 -28 0 -7 6 -4 13 7
26 35 126 -10 127 -57 0 -26 42 -23 58 3 12 18 15 19 25 6 13 -17 75 -28 83
-15 3 4 13 8 22 8 20 1 77 48 68 57 -15 15 -37 10 -48 -10 -17 -34 -29 -37
-58 -15 -20 14 -26 26 -22 44 4 24 16 31 26 15 3 -5 17 -8 31 -8 18 0 27 6 31
23 7 28 12 29 36 8 16 -16 18 -16 24 0 14 36 50 5 45 -39 -3 -19 -2 -19 19 3
12 12 26 20 31 16 5 -3 16 0 24 6 8 7 21 10 30 6 25 -9 5 -35 -36 -46 -21 -6
-41 -15 -44 -20 -3 -5 -12 -7 -19 -4 -8 3 -23 -7 -36 -23 -12 -15 -31 -30 -43
-33 -12 -3 -23 -13 -25 -22 -4 -18 44 -33 91 -29 18 2 34 -4 42 -16 14 -17 14
-17 15 0 0 23 26 33 45 17 12 -10 18 -10 30 0 8 7 21 10 29 7 8 -3 22 0 33 8
17 13 17 14 -4 37 -34 36 -30 58 11 58 18 0 38 -6 44 -13 14 -17 6 -69 -13
-83 -8 -6 -15 -16 -15 -22 0 -6 -9 -14 -20 -17 -11 -3 -20 -12 -20 -20 0 -17
72 -24 127 -11 36 8 46 6 62 -8 15 -13 20 -14 24 -4 4 10 7 11 18 1 11 -11 11
-13 -2 -13 -12 0 -12 -2 1 -10 27 -18 49 -12 46 13 -5 47 -19 77 -37 82 -24 8
-25 25 -1 25 25 0 49 -27 58 -65 10 -45 14 -48 34 -30 22 20 40 12 40 -15 0
-18 27 -40 49 -40 6 0 11 7 11 15 0 8 5 15 10 15 6 0 10 5 10 11 0 8 -5 8 -15
-1 -8 -7 -22 -9 -31 -6 -16 6 -16 8 0 25 9 10 14 25 10 35 -6 15 -9 15 -23 3
-21 -19 -61 -5 -61 21 0 28 11 34 32 15 17 -15 18 -15 18 2 0 10 -10 29 -22
42 l-21 23 36 0 c24 0 37 -5 37 -13 0 -7 5 -18 11 -24 9 -9 17 -6 31 13 14 17
26 23 44 19 13 -3 35 -7 49 -10 17 -4 25 -12 25 -25 0 -11 -4 -20 -10 -20 -5
0 -10 5 -10 11 0 5 -8 9 -18 7 -11 -2 -26 3 -34 9 -12 10 -15 10 -15 0 0 -6
-4 -20 -8 -29 -6 -15 -2 -18 19 -18 15 0 30 -8 36 -20 11 -21 40 -17 40 6 0 8
11 19 24 23 13 5 26 17 29 25 8 20 31 21 46 2 10 -12 6 -15 -19 -21 -27 -6
-44 -35 -20 -35 6 0 10 -10 10 -21 0 -16 -3 -19 -12 -12 -7 6 -20 13 -30 16
-14 5 -15 1 -8 -22 7 -25 6 -27 -20 -23 -24 3 -28 0 -34 -29 -3 -18 -5 -33 -4
-35 2 -1 20 -5 41 -9 33 -6 37 -5 37 13 0 12 8 23 19 27 10 3 22 17 25 30 8
31 19 32 39 1 15 -22 74 -45 60 -23 -17 28 52 40 84 15 7 -6 19 -5 32 1 11 6
32 11 46 11 20 0 26 -4 23 -17 -3 -14 -12 -17 -46 -15 -33 3 -42 0 -42 -12 0
-9 8 -17 18 -18 27 -2 120 -8 196 -11 61 -2 71 -6 90 -30 23 -28 51 -36 59
-14 3 9 7 9 18 0 8 -7 25 -10 37 -6 15 4 27 0 36 -12 9 -12 18 -15 27 -9 8 4
24 7 36 6 17 -3 22 3 25 25 4 34 28 37 44 5 16 -33 22 -36 39 -22 23 19 101
22 115 4 9 -10 23 -13 47 -8 25 5 39 2 54 -12 19 -17 20 -17 33 2 14 19 15 19
45 -4 17 -12 42 -22 56 -22 l25 0 0 994 0 994 -30 6 c-40 7 -70 -12 -70 -44 0
-29 -16 -58 -26 -47 -4 4 -2 18 5 31 8 13 11 29 7 34 -12 20 25 42 70 42 l44
0 0 40 c0 22 -2 40 -3 40 -2 0 -17 -6 -33 -14 -16 -8 -41 -17 -56 -20 -15 -2
-31 -7 -36 -10 -4 -2 -14 0 -22 5 -13 8 -12 12 4 24 11 8 26 15 33 15 7 0 13
9 13 20 0 13 -7 20 -19 20 -14 0 -18 5 -14 20 3 11 0 20 -6 20 -6 0 -11 -10
-11 -22 0 -13 -7 -32 -16 -43 -9 -12 -12 -31 -9 -50 5 -27 5 -28 -8 -12 -8 9
-18 17 -23 17 -5 0 -15 9 -21 19 -8 13 -19 18 -33 14 -24 -6 -25 -16 -5 -33
33 -28 12 -27 -29 0 l-44 30 15 32 16 31 17 -23 c17 -23 19 -23 45 -6 34 22
19 44 -33 48 l-37 3 4 60 c2 33 7 65 12 71 5 6 8 24 8 40 0 16 7 87 16 158 12
99 23 147 47 200 25 58 32 87 34 161 2 50 6 107 9 128 5 37 9 48 35 97 7 14
12 44 11 68 -1 24 3 59 9 77 10 29 15 33 45 32 32 -1 41 -17 9 -17 -17 0 -19
-26 -2 -36 8 -5 5 -11 -7 -20 -10 -8 -15 -17 -11 -21 4 -4 12 0 17 10 6 9 17
17 24 17 17 0 20 -26 5 -35 -17 -11 -11 -24 20 -40 27 -14 30 -14 30 0 0 8 -5
15 -11 15 -8 0 -8 4 0 14 9 10 9 16 1 21 -8 5 -7 11 1 22 8 9 9 17 3 21 -13
10 -17 59 -5 67 7 4 10 235 11 650 l0 644 -330 1 c-218 0 -330 -3 -330 -10 0
-5 -7 -10 -16 -10 -8 0 -12 5 -9 10 4 7 -110 10 -334 10 -262 0 -340 -3 -344
-12 -4 -9 -6 -9 -6 -1 -1 17 -457 18 -464 1 -4 -10 -7 -11 -18 0 -17 16 -349
18 -349 1 0 -7 -15 -9 -47 -4 -70 10 -388 17 -396 9z m2223 -54 c-6 -11 -15
-20 -20 -20 -6 0 -10 9 -10 20 0 13 7 20 20 20 18 0 19 -3 10 -20z m-562 -21
c-2 -6 -7 -10 -11 -10 -4 1 -14 1 -22 1 -8 0 -15 5 -15 10 0 6 12 10 26 10 14
0 24 -5 22 -11z m402 -35 c0 -23 -31 -30 -46 -9 -10 13 -11 22 -3 31 14 17 49
1 49 -22z m48 18 c2 -7 -6 -12 -17 -12 -21 0 -27 11 -14 24 9 9 26 2 31 -12z
m122 -32 c0 -17 -34 -29 -53 -19 -28 16 -20 29 18 29 19 0 35 -4 35 -10z
m-126 -30 c-12 -13 -24 -16 -33 -11 -10 7 -7 12 15 23 36 18 44 13 18 -12z
m-557 -19 c15 -20 16 -38 3 -46 -15 -9 -50 4 -50 19 0 8 -7 19 -15 26 -8 7
-15 17 -15 22 0 15 63 -2 77 -21z m896 -20 c6 -24 -7 -46 -22 -37 -16 10 -14
56 3 56 7 0 16 -9 19 -19z m-518 -22 c0 -7 -11 -19 -24 -25 -13 -7 -28 -18
-33 -26 -7 -10 -11 -9 -24 7 -14 18 -13 20 18 31 17 5 34 16 36 23 5 16 27 8
27 -10z m-1885 -4 c0 -8 -4 -15 -9 -15 -5 0 -11 7 -15 15 -3 9 0 15 9 15 8 0
15 -7 15 -15z m2042 -7 c-6 -6 -15 -8 -19 -4 -4 4 -1 11 7 16 19 12 27 3 12
-12z m-62 2 c0 -5 -4 -10 -10 -10 -5 0 -10 5 -10 10 0 6 5 10 10 10 6 0 10 -4
10 -10z m-1884 -10 c8 0 14 -5 14 -11 0 -6 -11 -8 -28 -4 -20 4 -33 1 -42 -10
-17 -21 -70 -20 -70 1 0 12 6 15 21 11 13 -3 22 0 26 10 4 11 14 13 36 9 16
-3 36 -6 43 -6z m1298 1 c3 -5 -1 -11 -9 -15 -15 -6 -29 7 -18 18 9 9 21 8 27
-3z m1101 0 c6 -11 -33 -26 -43 -16 -4 3 0 10 8 15 19 12 27 12 35 1z m-2266
-20 c19 -12 5 -31 -23 -31 -34 0 -87 21 -80 31 7 11 85 11 103 0z m1907 -29
c19 -25 17 -34 -6 -27 -13 4 -27 -1 -41 -14 -22 -20 -22 -21 -3 -42 19 -22 19
-22 -3 -10 -24 12 -41 71 -27 93 5 7 9 16 10 21 1 4 2 9 3 12 2 9 55 -16 67
-33z m71 -7 c-4 -8 -11 -15 -17 -15 -14 0 -13 27 3 33 16 6 21 1 14 -18z
m-197 -6 c0 -24 -23 -21 -28 4 -2 10 3 17 12 17 10 0 16 -9 16 -21z m-220 7
c0 -3 -4 -8 -10 -11 -5 -3 -10 -1 -10 4 0 6 5 11 10 11 6 0 10 -2 10 -4z
m-1361 -37 c-15 -9 -32 -2 -24 11 3 5 13 6 21 3 12 -4 13 -8 3 -14z m1009 -21
c-4 -29 -38 -38 -38 -10 0 22 8 32 27 32 9 0 13 -8 11 -22z m702 -2 c0 -3 -4
-8 -10 -11 -5 -3 -10 -1 -10 4 0 6 5 11 10 11 6 0 10 -2 10 -4z m-416 -23 c9
-10 -55 -73 -73 -72 -10 0 -11 2 -4 5 7 3 22 21 33 40 22 34 31 40 44 27z
m364 -52 c3 -8 -1 -12 -9 -9 -7 2 -15 10 -17 17 -3 8 1 12 9 9 7 -2 15 -10 17
-17z m92 -1 c0 -5 -5 -10 -11 -10 -5 0 -7 5 -4 10 3 6 8 10 11 10 2 0 4 -4 4
-10z m-895 -55 c0 -10 -5 -20 -11 -22 -13 -4 -27 24 -18 38 9 15 29 4 29 -16z
m1292 -11 c-3 -3 -12 -4 -19 -1 -8 3 -5 6 6 6 11 1 17 -2 13 -5z m-1390 -36
c-3 -8 -6 -5 -6 6 -1 11 2 17 5 13 3 -3 4 -12 1 -19z m-502 -102 c50 -8 155
-25 235 -36 145 -21 214 -42 207 -63 -6 -20 -28 -19 -34 2 -3 12 -13 21 -24
21 -26 0 -37 -30 -16 -42 23 -12 21 -28 -2 -28 -17 0 -114 24 -201 49 -19 5
-64 17 -100 26 -36 10 -78 25 -95 35 -16 10 -51 24 -78 30 -26 7 -50 17 -53
22 -7 11 16 9 161 -16z m1065 -37 c-7 -11 -14 -18 -17 -15 -8 8 5 36 17 36 7
0 7 -6 0 -21z m-210 -23 c0 -3 -4 -8 -10 -11 -5 -3 -10 -1 -10 4 0 6 5 11 10
11 6 0 10 -2 10 -4z m41 -21 c-1 -15 -24 -12 -29 3 -3 9 2 13 12 10 10 -1 17
-7 17 -13z m-96 -24 c-3 -5 -1 -12 5 -16 5 -3 10 -10 10 -15 0 -6 -9 -2 -20 7
-24 21 -26 33 -4 33 8 0 13 -4 9 -9z m945 1 c0 -5 -11 -22 -25 -38 -14 -16
-28 -39 -31 -51 -7 -26 -29 -30 -38 -8 -11 29 43 99 69 89 8 -4 15 -1 15 5 0
6 2 11 5 11 3 0 5 -4 5 -8z m-970 -56 c0 -13 6 -26 13 -29 7 -3 2 -9 -13 -15
-14 -5 -28 -8 -33 -5 -6 4 0 48 10 66 9 16 23 6 23 -17z m151 1 c-1 -12 -15
-9 -19 4 -3 6 1 10 8 8 6 -3 11 -8 11 -12z m-1273 -22 c47 -7 277 -42 358 -55
34 -6 73 -10 87 -10 14 0 48 -5 74 -10 38 -8 52 -17 66 -42 10 -17 15 -33 12
-36 -3 -3 -31 0 -63 7 -31 7 -97 21 -145 31 -49 11 -109 26 -135 34 -62 20
-106 31 -227 56 -55 12 -109 26 -120 31 -20 9 -13 9 93 -6z m849 9 c-3 -3 -12
-4 -19 -1 -8 3 -5 6 6 6 11 1 17 -2 13 -5z m73 -4 c0 -5 -4 -10 -10 -10 -5 0
-10 5 -10 10 0 6 5 10 10 10 6 0 10 -4 10 -10z m730 -4 c0 -8 -7 -17 -16 -20
-23 -9 -24 -8 -24 14 0 13 7 20 20 20 11 0 20 -6 20 -14z m-670 -45 c0 -5 -7
-14 -15 -21 -12 -10 -15 -10 -15 2 0 8 3 18 7 21 9 10 23 9 23 -2z m678 -9 c2
-7 -3 -12 -12 -12 -9 0 -16 7 -16 16 0 17 22 14 28 -4z m-520 -13 c-10 -5 -18
-21 -18 -34 0 -28 -17 -33 -27 -8 -7 17 28 53 51 53 6 0 3 -5 -6 -11z m-498
-49 c0 -5 -4 -10 -10 -10 -5 0 -10 5 -10 10 0 6 5 10 10 10 6 0 10 -4 10 -10z
m1590 0 c0 -5 -9 -10 -21 -10 -11 0 -17 5 -14 10 3 6 13 10 21 10 8 0 14 -4
14 -10z m-1377 -21 c26 -6 47 -14 47 -17 0 -15 -69 -51 -91 -48 -63 8 -149 31
-149 40 0 5 8 18 17 29 15 16 26 18 73 13 30 -4 76 -11 103 -17z m1007 12 c0
-20 -13 -42 -31 -52 -17 -8 -19 -6 -19 20 0 23 4 29 15 25 8 -4 15 -1 15 5 0
6 5 11 10 11 6 0 10 -4 10 -9z m270 -31 c13 -24 30 -26 30 -5 0 17 25 20 35 5
3 -6 -2 -13 -12 -17 -10 -4 -22 -12 -28 -19 -9 -11 -41 -18 -72 -15 -6 1 -11
16 -10 36 1 29 5 35 24 35 12 0 27 -9 33 -20z m-507 3 c-7 -2 -19 -2 -25 0 -7
3 -2 5 12 5 14 0 19 -2 13 -5z m-1803 -13 c0 -5 -4 -10 -9 -10 -6 0 -13 5 -16
10 -3 6 1 10 9 10 9 0 16 -4 16 -10z m140 -30 c0 -5 -4 -10 -10 -10 -5 0 -10
5 -10 10 0 6 5 10 10 10 6 0 10 -4 10 -10z m1670 -16 c0 -11 -34 -64 -42 -64
-19 0 -18 24 3 46 21 23 39 31 39 18z m504 -23 c15 -17 13 -51 -3 -51 -15 0
-31 25 -31 47 0 28 11 29 34 4z m-2469 -1 c3 -5 1 -10 -4 -10 -6 0 -11 5 -11
10 0 6 2 10 4 10 3 0 8 -4 11 -10z m1165 -4 c0 -3 -4 -8 -10 -11 -5 -3 -10 -1
-10 4 0 6 5 11 10 11 6 0 10 -2 10 -4z m50 -11 c0 -8 -4 -15 -10 -15 -5 0 -10
7 -10 15 0 8 5 15 10 15 6 0 10 -7 10 -15z m1018 -14 c-2 -21 -8 -26 -30 -26
-16 -1 -28 3 -28 7 0 4 -9 8 -20 8 -19 0 -27 19 -14 32 3 4 26 6 50 5 42 0 45
-2 42 -26z m191 -18 c13 -34 12 -37 -10 -54 -39 -30 -53 -21 -24 17 8 10 15
22 15 27 0 13 -28 7 -34 -8 -7 -19 -46 -20 -46 -1 0 18 47 56 69 56 10 0 22
-14 30 -37z m-771 10 c17 -34 21 -91 7 -109 -7 -10 -11 -23 -9 -29 5 -14 -47
-50 -55 -38 -3 6 -12 12 -20 14 -11 4 -10 8 3 22 10 9 16 23 13 30 -2 6 6 28
19 48 14 22 21 45 17 58 -6 25 13 28 25 4z m112 2 c0 -9 -9 -15 -21 -15 -18 0
-19 2 -9 15 7 8 16 15 21 15 5 0 9 -7 9 -15z m787 -9 c-7 -21 -37 -19 -37 2 0
15 5 19 20 15 12 -3 19 -11 17 -17z m-2429 -9 c2 -8 -6 -21 -18 -27 -30 -16
-46 -8 -26 13 10 9 15 17 11 17 -3 0 -3 5 0 11 9 14 29 6 33 -14z m172 -49 c0
-26 -4 -38 -8 -30 -8 12 -4 72 4 72 2 0 4 -19 4 -42z m830 33 c0 -5 -6 -12
-12 -14 -7 -3 3 -6 23 -6 24 -1 39 4 43 14 8 22 26 18 26 -5 0 -13 7 -20 20
-20 30 0 34 -23 11 -69 l-21 -40 -44 29 c-44 30 -78 83 -69 107 6 15 23 18 23
4z m920 -10 c0 -11 -5 -23 -10 -26 -6 -4 -3 -16 10 -32 16 -20 18 -29 9 -40
-9 -11 -8 -17 6 -27 10 -7 19 -24 20 -37 2 -13 8 -38 15 -55 7 -17 10 -42 6
-57 -10 -41 -40 -35 -67 13 -13 22 -26 40 -31 40 -4 0 -8 6 -8 14 0 8 -10 31
-21 51 -22 36 -22 37 -4 96 18 57 34 78 63 79 6 0 12 -9 12 -19z m-1810 -26
c0 -8 -6 -15 -14 -15 -18 0 -39 27 -31 40 9 14 45 -6 45 -25z m1275 25 c-3 -5
-10 -10 -16 -10 -5 0 -9 5 -9 10 0 6 7 10 16 10 8 0 12 -4 9 -10z m433 -27
c-4 -34 -28 -43 -28 -10 0 25 7 37 22 37 5 0 8 -12 6 -27z m-388 -1 c0 -13
-12 -22 -22 -16 -10 6 -1 24 13 24 5 0 9 -4 9 -8z m276 -3 c10 -17 -13 -36
-27 -22 -12 12 -4 33 11 33 5 0 12 -5 16 -11z m350 -30 c-1 -27 -8 -44 -19
-51 -15 -8 -17 -4 -17 30 0 35 14 62 31 62 4 0 6 -18 5 -41z m-836 1 c0 -21
-24 -28 -35 -10 -8 14 3 30 21 30 8 0 14 -9 14 -20z m1095 -12 c-1 -21 -14
-38 -16 -20 0 4 -6 13 -12 20 -8 10 -7 16 3 22 19 12 26 6 25 -22z m-1160 -25
c-12 -17 -20 -23 -23 -15 -4 14 28 56 36 47 3 -2 -3 -17 -13 -32z m115 22 c0
-8 -7 -15 -15 -15 -8 0 -15 7 -15 15 0 8 7 15 15 15 8 0 15 -7 15 -15z m470
-14 c5 -11 10 -26 10 -34 0 -17 -47 -40 -63 -30 -6 4 -24 6 -39 5 -15 -1 -28
2 -28 6 0 18 70 69 97 71 7 1 17 -8 23 -18z m515 -3 c26 -22 20 -37 -15 -38
-18 0 -43 37 -35 50 9 15 23 12 50 -12z m-115 -23 c0 -8 -7 -15 -15 -15 -16 0
-20 12 -8 23 11 12 23 8 23 -8z m-920 -11 c0 -17 -22 -14 -28 4 -2 7 3 12 12
12 9 0 16 -7 16 -16z m1086 -38 c3 -8 -2 -30 -11 -50 -9 -19 -14 -40 -10 -46
3 -5 4 -19 0 -30 -8 -26 -35 -14 -35 15 0 13 -4 27 -10 30 -16 10 -12 45 6 45
13 0 14 3 4 15 -6 8 -9 19 -5 25 9 15 55 12 61 -4z m-593 -40 c25 -19 27 -24
21 -66 -8 -53 -39 -147 -55 -167 -7 -7 -20 -11 -30 -8 -22 7 -26 -10 -4 -19
19 -7 19 -40 0 -56 -12 -10 -17 -7 -26 16 -7 16 -11 35 -10 42 1 7 -7 24 -19
39 -14 18 -17 30 -10 37 5 5 10 20 10 31 0 12 9 39 19 61 11 21 15 41 10 42
-13 5 -11 32 2 32 6 0 13 -9 16 -20 6 -23 33 -27 33 -5 0 8 6 15 13 15 6 1 -1
8 -16 16 -23 12 -26 18 -17 30 13 14 18 13 63 -20z m462 -33 c10 -38 22 -72
26 -77 11 -12 12 -46 1 -46 -4 0 -13 -9 -20 -21 -11 -18 -11 -23 3 -33 15 -11
16 -23 5 -131 -12 -123 -21 -155 -44 -155 -25 0 -44 36 -70 132 -18 69 -23
105 -17 121 5 13 5 30 1 38 -14 21 -4 101 13 110 11 6 17 3 21 -14 7 -21 7
-21 16 -2 11 26 12 35 3 33 -5 -1 -21 5 -36 12 -23 11 -27 18 -22 39 8 34 41
61 75 61 25 0 28 -5 45 -67z m-650 37 c3 -5 1 -10 -4 -10 -6 0 -11 5 -11 10 0
6 2 10 4 10 3 0 8 -4 11 -10z m313 -57 c25 -36 72 -138 72 -155 0 -8 -4 -18
-9 -23 -5 -6 -14 -28 -21 -50 -7 -22 -20 -51 -29 -65 -9 -14 -25 -52 -37 -84
-22 -65 -33 -75 -58 -51 -20 20 -20 49 -2 145 8 41 12 94 9 117 -7 53 23 193
42 193 8 0 22 -12 33 -27z m-468 3 c0 -3 -4 -8 -10 -11 -5 -3 -10 -1 -10 4 0
6 5 11 10 11 6 0 10 -2 10 -4z m-150 -16 c0 -5 -2 -10 -4 -10 -3 0 -8 5 -11
10 -3 6 -1 10 4 10 6 0 11 -4 11 -10z m218 -48 c2 -18 8 -32 13 -32 12 0 28
-41 22 -57 -9 -24 -44 -26 -67 -5 -11 12 -31 30 -44 42 -25 23 -21 40 9 40 10
0 19 6 19 13 0 17 21 38 35 34 5 -2 11 -18 13 -35z m-218 -71 c0 -4 -3 -11 -7
-14 -9 -9 -33 12 -33 30 0 11 4 11 20 3 11 -6 20 -14 20 -19z m85 -108 c24
-56 4 -62 -45 -15 -45 43 -45 44 17 51 7 0 20 -16 28 -36z m160 17 c-3 -5 -10
-10 -16 -10 -5 0 -9 5 -9 10 0 6 7 10 16 10 8 0 12 -4 9 -10z m509 -55 c8 -19
22 -63 31 -97 9 -35 21 -78 26 -96 11 -36 -3 -160 -23 -197 -8 -14 -8 -20 1
-23 16 -5 14 -32 -3 -32 -8 0 -18 5 -21 10 -3 6 -17 10 -31 10 -14 0 -27 7
-31 15 -5 14 -7 14 -22 1 -9 -8 -29 -16 -46 -18 -34 -3 -37 -18 -7 -34 27 -13
10 -34 -26 -34 -23 0 -24 2 -17 38 4 20 7 46 6 57 0 11 7 28 17 38 13 15 14
22 4 37 -20 32 -14 63 28 158 22 49 40 104 40 121 0 36 26 81 46 81 8 0 20
-16 28 -35z m-392 -22 c10 -9 18 -23 18 -31 0 -9 9 -25 19 -36 28 -31 51 -109
51 -174 0 -63 -5 -74 -37 -90 -17 -9 -22 -9 -27 3 -4 10 -20 15 -51 15 -55 0
-89 15 -81 36 3 9 1 24 -4 35 -8 14 -5 31 15 72 14 30 25 64 25 76 0 13 6 35
14 49 8 15 17 35 20 45 7 21 14 21 38 0z m-162 -53 c0 -13 -5 -18 -14 -14 -8
3 -12 12 -9 20 8 21 23 17 23 -6z m-307 -166 c3 -3 3 -12 0 -19 -6 -17 -33 -8
-33 11 0 14 21 19 33 8z m177 -68 c0 -8 -4 -17 -9 -21 -12 -7 -24 12 -16 25 9
15 25 12 25 -4z m-161 -22 c-6 -8 -9 -23 -6 -34 3 -11 4 -20 2 -20 -13 0 -35
14 -35 21 0 18 32 59 42 53 5 -3 4 -11 -3 -20z m76 6 c3 -5 1 -10 -4 -10 -6 0
-11 5 -11 10 0 6 2 10 4 10 3 0 8 -4 11 -10z m-23 -99 c-4 -10 -1 -12 9 -7 8
4 6 1 -4 -8 -23 -18 -43 -12 -50 15 -4 16 0 19 23 17 20 -1 26 -6 22 -17z m73
9 c3 -5 1 -10 -4 -10 -6 0 -11 5 -11 10 0 6 2 10 4 10 3 0 8 -4 11 -10z m-445
-16 c0 -21 -18 -54 -30 -54 -13 0 -13 26 0 51 13 23 30 25 30 3z m1151 -64
c28 -15 23 -30 -9 -30 -27 0 -52 15 -52 32 0 11 38 10 61 -2z m-1180 -53 c-1
-12 -15 -9 -19 4 -3 6 1 10 8 8 6 -3 11 -8 11 -12z m1112 -4 c-7 -2 -19 -2
-25 0 -7 3 -2 5 12 5 14 0 19 -2 13 -5z m-13 -64 c0 -14 -26 -11 -39 5 -9 11
-6 12 14 8 14 -2 25 -8 25 -13z m-90 -13 c6 -18 14 -23 28 -19 11 2 23 0 26
-6 4 -6 25 -11 46 -11 43 0 54 -10 45 -40 -7 -23 -41 -36 -58 -22 -7 6 -33 13
-59 17 -26 4 -55 13 -65 20 -16 12 -16 15 2 49 11 20 21 36 23 36 1 0 7 -11
12 -24z m-1043 -108 c-3 -8 -6 -5 -6 6 -1 11 2 17 5 13 3 -3 4 -12 1 -19z
m-1077 -38 c0 -5 -7 -7 -15 -4 -8 4 -12 10 -9 15 6 11 24 2 24 -11z m2396 -36
c-3 -9 -6 -18 -6 -20 0 -3 -4 -3 -10 1 -11 7 -2 35 12 35 6 0 7 -7 4 -16z
m101 -86 c-3 -8 -6 -5 -6 6 -1 11 2 17 5 13 3 -3 4 -12 1 -19z m-354 -8 c3
-11 1 -20 -4 -20 -5 0 -9 9 -9 20 0 11 2 20 4 20 2 0 6 -9 9 -20z m487 0 c0
-5 -7 -10 -15 -10 -8 0 -15 5 -15 10 0 6 7 10 15 10 8 0 15 -4 15 -10z m-1590
-20 c-6 -11 -13 -20 -15 -20 -3 0 -5 9 -5 20 0 11 7 20 15 20 13 0 14 -4 5
-20z m1420 -5 c0 -8 -4 -15 -10 -15 -5 0 -10 7 -10 15 0 8 5 15 10 15 6 0 10
-7 10 -15z m-512 -157 c16 -16 15 -38 -2 -38 -18 0 -39 27 -31 40 8 13 18 13
33 -2z m-219 -45 c-7 -8 -25 -13 -43 -11 -26 3 -31 -1 -38 -28 -7 -27 -12 -31
-33 -26 -17 3 -27 -1 -31 -12 -12 -33 -34 -17 -34 24 0 39 6 45 39 40 8 -1 20
5 25 13 6 7 24 21 40 29 25 13 32 13 58 1 24 -12 27 -17 17 -30z m173 -8 c14
-25 15 -34 5 -54 -13 -27 -33 -26 -30 2 2 9 -4 17 -12 17 -8 0 -15 -8 -15 -19
0 -10 -10 -26 -22 -35 -14 -10 -18 -19 -12 -22 47 -21 58 -64 16 -64 -27 0
-44 20 -31 36 16 20 3 32 -27 26 -24 -4 -26 -2 -19 14 4 10 11 35 15 54 12 63
30 81 75 78 31 -2 42 -9 57 -33z m704 -2 c18 -24 17 -33 -3 -33 -28 0 -47 16
-40 34 8 21 27 20 43 -1z m-1036 -168 c0 -38 -3 -45 -20 -45 -16 0 -20 7 -20
33 0 31 14 57 32 57 4 0 8 -20 8 -45z m130 -25 c84 -19 105 -29 92 -42 -8 -8
-30 -7 -79 3 -37 8 -75 13 -85 12 -21 -3 -42 22 -34 42 4 11 11 13 28 6 13 -5
48 -14 78 -21z m-1526 -246 c19 -19 22 -109 4 -120 -33 -21 -63 -3 -38 22 6 6
6 21 1 39 -7 21 -10 24 -10 10 -1 -27 -28 -65 -46 -65 -10 0 -12 10 -8 40 4
31 1 46 -13 62 l-19 21 33 -6 c18 -4 32 -2 32 3 0 16 47 11 64 -6z m599 -74
c7 -42 2 -143 -8 -160 -3 -4 -24 -2 -47 5 -43 12 -43 12 -46 65 -3 44 1 57 21
79 13 14 27 34 31 44 12 34 40 15 49 -33z m261 -68 c-11 -16 -19 -22 -22 -14
-2 7 4 25 14 40 11 16 19 22 22 14 2 -7 -4 -25 -14 -40z m-808 -9 c-13 -69
-16 -74 -44 -71 -19 2 -28 10 -30 26 -4 23 12 30 24 11 9 -16 24 10 24 44 0
18 5 27 16 27 13 0 15 -7 10 -37z m-311 -13 c-3 -5 -13 -10 -21 -10 -8 0 -14
5 -14 10 0 6 9 10 21 10 11 0 17 -4 14 -10z m161 -11 c11 -18 -11 -25 -63 -20
l-48 4 30 13 c37 16 72 18 81 3z m859 -60 c20 -19 -11 -29 -70 -21 -47 5 -61
11 -63 26 -4 17 1 18 59 12 35 -4 68 -12 74 -17z m-542 -236 c-13 -2 -33 -2
-45 0 -13 2 -3 4 22 4 25 0 35 -2 23 -4z m117 -228 c7 -8 18 -15 25 -15 7 0
20 -11 29 -25 19 -30 19 -30 -24 -8 -38 19 -70 44 -70 55 0 14 27 9 40 -7z
m-251 -56 c-16 -10 -23 -4 -14 10 3 6 11 8 17 5 6 -4 5 -9 -3 -15z m771 1 c0
-6 -12 -15 -26 -21 -30 -11 -25 -23 9 -24 15 0 23 -7 25 -23 3 -16 7 -20 15
-14 30 25 87 12 87 -19 0 -15 -6 -19 -32 -17 -26 3 -35 -2 -46 -25 -11 -22
-18 -26 -35 -21 -33 10 -39 27 -15 45 l22 17 -25 -5 c-22 -4 -26 -1 -25 19 1
17 -4 22 -18 20 -19 -3 -56 28 -56 48 0 7 7 7 22 -1 16 -9 23 -9 26 0 2 6 12
11 23 11 10 0 19 5 19 10 0 6 7 10 15 10 8 0 15 -5 15 -10z m-170 -9 c0 -11
-26 -22 -34 -14 -12 12 -5 23 14 23 11 0 20 -4 20 -9z m-645 -11 c-3 -5 -14
-10 -23 -10 -15 0 -15 2 -2 10 20 13 33 13 25 0z m570 0 c18 -7 18 -9 4 -15
-10 -3 -25 -5 -35 -3 -13 2 -20 -5 -24 -27 l-5 -29 -18 27 c-20 31 -21 44 -4
50 19 8 60 7 82 -3z m-391 -15 c-4 -8 -10 -15 -15 -15 -4 0 -6 7 -3 15 4 8 10
15 15 15 4 0 6 -7 3 -15z m1306 1 c0 -3 -4 -8 -10 -11 -5 -3 -10 -1 -10 4 0 6
5 11 10 11 6 0 10 -2 10 -4z m-1171 -53 c-17 -7 -35 -10 -40 -7 -18 10 -9 30
19 40 21 9 30 8 39 -4 11 -13 8 -18 -18 -29z m361 32 c0 -8 -7 -15 -15 -15
-26 0 -18 20 13 29 1 1 2 -6 2 -14z m-45 -15 c-3 -5 -13 -10 -21 -10 -8 0 -14
5 -14 10 0 6 9 10 21 10 11 0 17 -4 14 -10z m-635 -16 c0 -17 -22 -14 -28 4
-2 7 3 12 12 12 9 0 16 -7 16 -16z m981 3 c-1 -12 -15 -9 -19 4 -3 6 1 10 8 8
6 -3 11 -8 11 -12z m-288 -12 c7 -16 -8 -29 -23 -20 -15 9 -12 35 4 35 8 0 16
-7 19 -15z m597 -6 c0 -11 -4 -17 -10 -14 -5 3 -10 13 -10 21 0 8 5 14 10 14
6 0 10 -9 10 -21z m-229 -10 c13 -11 18 -18 12 -14 -7 3 -13 1 -13 -4 0 -6 4
-11 8 -11 10 0 35 -50 29 -57 -9 -9 -57 18 -57 32 0 8 -9 15 -20 15 -14 0 -20
7 -20 23 0 43 24 49 61 16z m317 -42 c-26 -41 -43 -48 -34 -14 3 12 6 28 6 35
0 6 6 12 14 12 8 0 17 8 21 18 7 15 9 15 12 1 2 -9 -6 -32 -19 -52z m-268 38
c0 -8 -4 -15 -10 -15 -5 0 -10 7 -10 15 0 8 5 15 10 15 6 0 10 -7 10 -15z
m-859 -17 c0 -13 3 -17 6 -10 8 20 30 14 37 -10 10 -40 7 -58 -11 -58 -52 1
-99 100 -48 100 9 0 15 -9 16 -22z m-221 -8 c0 -5 -4 -10 -10 -10 -5 0 -10 5
-10 10 0 6 5 10 10 10 6 0 10 -4 10 -10z m1413 3 c-7 -2 -19 -2 -25 0 -7 3 -2
5 12 5 14 0 19 -2 13 -5z m-539 -38 c-4 -8 -12 -15 -20 -15 -8 0 -14 7 -14 15
0 8 9 15 20 15 13 0 18 -5 14 -15z m156 -67 c0 -4 -7 -5 -15 -2 -8 4 -15 16
-15 28 1 21 1 21 15 2 8 -11 15 -23 15 -28z m760 27 c0 -8 -7 -15 -15 -15 -16
0 -20 12 -8 23 11 12 23 8 23 -8z m-602 -7 c-6 -18 -28 -21 -28 -4 0 9 7 16
16 16 9 0 14 -5 12 -12z m-513 -18 c3 -5 1 -10 -4 -10 -6 0 -11 5 -11 10 0 6
2 10 4 10 3 0 8 -4 11 -10z m-100 -10 c3 -5 1 -10 -4 -10 -6 0 -11 5 -11 10 0
6 2 10 4 10 3 0 8 -4 11 -10z m304 -39 c12 -8 12 -12 2 -24 -13 -16 -51 -12
-63 7 -14 21 34 34 61 17z m996 -50 c3 -5 1 -12 -5 -16 -5 -3 -10 1 -10 9 0
18 6 21 15 7z m99 -17 c4 -9 4 -19 1 -23 -8 -7 -38 12 -43 27 -6 19 35 14 42
-4z m134 -42 c6 -18 -15 -14 -22 4 -4 10 -1 14 6 12 6 -2 14 -10 16 -16z
m-170 -36 c10 -25 11 -41 5 -47 -17 -17 -43 19 -43 58 0 44 18 40 38 -11z
m546 35 c7 -10 -33 -23 -47 -14 -10 6 11 23 30 23 6 0 14 -4 17 -9z m-1034
-11 c0 -5 -5 -10 -11 -10 -5 0 -7 5 -4 10 3 6 8 10 11 10 2 0 4 -4 4 -10z
m727 -36 c8 -20 -9 -36 -30 -28 -20 7 -22 30 -4 37 21 9 27 7 34 -9z"/>
<path d="M6058 7063 c7 -3 16 -2 19 1 4 3 -2 6 -13 5 -11 0 -14 -3 -6 -6z"/>
<path d="M6928 6943 c7 -3 16 -2 19 1 4 3 -2 6 -13 5 -11 0 -14 -3 -6 -6z"/>
<path d="M3700 8118 c0 -17 18 -87 29 -113 5 -11 14 -36 20 -55 10 -34 10 -34
5 10 -3 25 -12 64 -20 88 -8 23 -14 49 -14 57 0 7 -4 17 -10 20 -5 3 -10 0
-10 -7z"/>
<path d="M3000 7773 c-8 -2 -20 -15 -27 -28 -11 -25 -11 -25 30 -19 38 6 77
28 66 37 -8 8 -54 14 -69 10z"/>
<path d="M3503 7640 c-1 -44 2 -80 7 -80 12 0 24 103 16 135 -12 47 -21 25
-23 -55z"/>
<path d="M3005 7689 c-4 -6 -5 -12 -2 -15 2 -3 7 2 10 11 7 17 1 20 -8 4z"/>
<path d="M3028 7563 c7 -3 16 -2 19 1 4 3 -2 6 -13 5 -11 0 -14 -3 -6 -6z"/>
<path d="M3771 7514 c0 -11 3 -14 6 -6 3 7 2 16 -1 19 -3 4 -6 -2 -5 -13z"/>
<path d="M3600 7265 c0 -5 5 -17 10 -25 5 -8 10 -10 10 -5 0 6 -5 17 -10 25
-5 8 -10 11 -10 5z"/>
<path d="M4760 7065 c-12 -14 22 -23 125 -31 68 -6 65 5 -5 26 -62 17 -108 19
-120 5z"/>
<path d="M3159 7036 c-1 -6 -1 -14 0 -18 0 -5 -4 -8 -10 -8 -5 0 -7 -4 -4 -10
11 -17 24 -11 20 10 -2 13 2 20 11 20 9 0 14 -11 15 -32 1 -31 1 -32 9 -8 14
44 11 55 -15 56 -14 1 -26 -3 -26 -10z"/>
<path d="M5056 7015 c-4 -10 1 -15 14 -15 13 0 18 5 14 15 -4 8 -10 15 -14 15
-4 0 -10 -7 -14 -15z"/>
<path d="M5875 6960 c-8 -13 4 -32 16 -25 12 8 12 35 0 35 -6 0 -13 -4 -16
-10z"/>
<path d="M5550 6940 c0 -6 7 -10 15 -10 8 0 15 2 15 4 0 2 -7 6 -15 10 -8 3
-15 1 -15 -4z"/>
<path d="M5615 6930 c-18 -7 -18 -9 10 -20 17 -6 68 -18 115 -25 47 -7 101
-16 122 -20 30 -6 38 -4 47 13 22 40 15 51 -25 40 -24 -6 -58 -6 -102 1 -117
17 -147 19 -167 11z"/>
<path d="M5210 6810 c0 -5 5 -10 10 -10 6 0 10 5 10 10 0 6 -4 10 -10 10 -5 0
-10 -4 -10 -10z"/>
<path d="M7444 6672 c-19 -16 -29 -34 -27 -44 7 -28 21 -21 28 12 5 23 12 30
31 30 15 0 24 6 24 15 0 23 -21 18 -56 -13z"/>
<path d="M7213 5910 c-17 -27 -2 -34 74 -34 80 0 106 19 39 29 -25 4 -53 5
-61 1 -9 -3 -15 0 -15 9 0 21 -23 18 -37 -5z"/>
<path d="M7380 5910 c0 -5 14 -10 30 -10 17 0 30 5 30 10 0 6 -13 10 -30 10
-16 0 -30 -4 -30 -10z"/>
<path d="M4180 4936 c-7 -18 -17 -26 -34 -26 -41 0 -77 -21 -71 -42 3 -10 8
-27 11 -38 14 -51 106 11 119 82 8 43 -10 61 -25 24z"/>
<path d="M4075 4719 c-7 -11 -16 -58 -40 -219 -7 -52 -21 -131 -31 -175 -26
-127 -28 -152 -10 -190 9 -19 21 -35 25 -35 9 0 28 110 36 220 4 41 15 106 26
144 19 64 23 85 36 214 4 47 3 52 -15 52 -12 0 -24 -5 -27 -11z"/>
<path d="M4315 4480 c-28 -7 -28 -8 -5 -9 28 -1 154 -29 185 -42 36 -14 81
-18 95 -9 24 15 2 26 -85 43 -112 22 -155 26 -190 17z"/>
<path d="M4807 4483 c-13 -12 -7 -33 8 -33 8 0 15 9 15 20 0 20 -11 26 -23 13z"/>
<path d="M4680 4433 c-8 -4 -19 -12 -25 -19 -5 -7 -21 -14 -35 -16 -25 -4 -25
-4 6 -20 40 -22 51 -48 28 -65 -10 -7 -27 -13 -38 -14 -20 0 -20 -1 -3 -12 61
-39 79 -64 79 -104 -1 -33 3 -42 20 -46 11 -3 17 -10 13 -16 -10 -17 21 -13
36 5 10 12 10 27 1 72 -6 31 -16 93 -23 137 -15 98 -23 112 -59 98z"/>
<path d="M4340 4330 c0 -5 7 -10 16 -10 8 0 12 5 9 10 -3 6 -10 10 -16 10 -5
0 -9 -4 -9 -10z"/>
<path d="M4404 4319 c-9 -16 2 -22 21 -11 15 8 16 10 1 15 -8 3 -18 2 -22 -4z"/>
<path d="M4460 4310 c8 -5 35 -9 60 -9 37 1 41 2 20 9 -38 12 -99 12 -80 0z"/>
<path d="M4210 4170 c-11 -7 -12 -12 -3 -21 13 -13 33 -4 33 17 0 16 -9 18
-30 4z"/>
<path d="M4390 4172 c0 -4 9 -16 21 -25 11 -10 18 -21 15 -24 -3 -3 -12 2 -21
11 -24 24 -54 38 -65 31 -33 -20 26 -71 68 -59 15 4 31 8 37 8 18 2 17 37 -2
51 -20 16 -53 20 -53 7z"/>
<path d="M4478 4163 c7 -3 16 -2 19 1 4 3 -2 6 -13 5 -11 0 -14 -3 -6 -6z"/>
<path d="M4531 4151 c-39 -25 67 -63 110 -41 29 16 14 30 -31 30 -21 0 -42 5
-45 10 -8 12 -16 12 -34 1z"/>
<path d="M4266 4135 c7 -17 20 -20 28 -6 3 5 -1 12 -10 15 -22 9 -24 8 -18 -9z"/>
<path d="M4195 4090 c-3 -5 -1 -18 5 -29 13 -25 -4 -38 -25 -21 -17 14 -17 14
-20 -20 -1 -14 -5 -44 -9 -66 -8 -48 -3 -54 52 -59 20 -2 46 -6 56 -11 11 -4
35 -8 53 -8 18 -1 33 -4 33 -8 0 -5 11 -8 24 -8 13 0 26 -4 28 -10 2 -5 21
-11 44 -13 23 -2 46 -7 53 -11 6 -4 20 -5 30 -1 11 3 22 1 26 -5 4 -6 15 -8
25 -5 13 4 22 -1 30 -16 9 -15 15 -18 23 -10 6 6 19 11 29 11 21 0 25 48 7 99
-12 35 -31 45 -114 63 -27 6 -54 13 -60 17 -5 4 -23 8 -39 9 -17 1 -33 7 -37
13 -4 8 -12 8 -25 1 -11 -5 -33 -7 -50 -5 -27 4 -30 8 -27 31 2 15 0 20 -3 12
-10 -23 -27 -30 -42 -18 -9 8 -16 8 -24 0 -22 -22 -28 -12 -21 33 4 29 2 45
-5 45 -6 0 -14 -4 -17 -10z"/>
<path d="M4737 4078 c-10 -11 -17 -21 -15 -24 8 -8 58 21 58 34 0 18 -22 13
-43 -10z"/>
<path d="M4263 4053 c9 -9 19 -14 23 -11 10 10 -6 28 -24 28 -15 0 -15 -1 1
-17z"/>
<path d="M5071 4016 c-9 -11 -6 -15 16 -19 34 -6 40 -2 23 18 -15 19 -24 19
-39 1z"/>
<path d="M4002 3980 c0 -14 2 -19 5 -12 2 6 2 18 0 25 -3 6 -5 1 -5 -13z"/>
<path d="M4790 3895 c-1 -5 -3 -18 -5 -28 -5 -26 25 -108 37 -101 12 7 1 80
-18 114 -7 14 -14 21 -14 15z"/>
<path d="M6118 3833 c7 -3 16 -2 19 1 4 3 -2 6 -13 5 -11 0 -14 -3 -6 -6z"/>
<path d="M4376 3814 c-8 -22 -21 -241 -13 -234 7 7 31 240 24 246 -2 3 -7 -3
-11 -12z"/>
<path d="M6130 3796 c0 -9 5 -16 10 -16 6 0 10 4 10 9 0 6 -4 13 -10 16 -5 3
-10 -1 -10 -9z"/>
<path d="M6316 3792 c-7 -12 22 -38 31 -28 4 3 0 14 -9 22 -9 10 -18 12 -22 6z"/>
<path d="M4601 3708 c-1 -37 3 -69 8 -72 11 -7 13 88 1 116 -7 18 -9 7 -9 -44z"/>
<path d="M4130 3742 c0 -10 -5 -23 -11 -29 -6 -6 -9 -23 -7 -39 l4 -29 17 37
c19 42 22 78 7 78 -5 0 -10 -8 -10 -18z"/>
<path d="M4833 3690 c0 -25 2 -35 4 -22 2 12 2 32 0 45 -2 12 -4 2 -4 -23z"/>
<path d="M6640 3700 c-24 -6 -23 -6 12 -23 39 -18 118 -23 118 -7 0 6 -15 10
-33 10 -18 0 -41 6 -52 13 -12 8 -31 11 -45 7z"/>
<path d="M6814 3659 c-13 -15 -14 -19 -3 -19 8 0 22 7 32 14 14 11 15 15 3 19
-8 3 -22 -3 -32 -14z"/>
<path d="M6879 3659 c-12 -8 -11 -12 5 -24 34 -26 47 -16 23 17 -9 12 -17 14
-28 7z"/>
<path d="M7138 3643 c-57 -23 -45 -63 19 -63 36 0 43 13 16 29 -17 9 -17 11 1
24 28 21 6 27 -36 10z"/>
<path d="M7220 3600 c0 -10 59 -44 65 -38 7 7 -10 24 -37 35 -16 7 -28 8 -28
3z"/>
<path d="M7400 3579 c0 -5 5 -7 10 -4 6 3 10 8 10 11 0 2 -4 4 -10 4 -5 0 -10
-5 -10 -11z"/>
<path d="M4055 3451 c-3 -5 -1 -12 5 -16 5 -3 10 1 10 9 0 18 -6 21 -15 7z"/>
<path d="M3974 3383 c1 -7 4 -14 7 -15 2 -2 3 -1 2 1 -2 2 5 10 15 17 16 12
15 13 -4 11 -12 0 -21 -7 -20 -14z"/>
<path d="M4050 3226 c0 -9 5 -16 10 -16 6 0 10 4 10 9 0 6 -4 13 -10 16 -5 3
-10 -1 -10 -9z"/>
<path d="M4150 3190 c0 -24 32 -39 67 -32 30 6 31 38 1 46 -45 12 -68 7 -68
-14z"/>
<path d="M4278 3182 c-25 -5 -23 -12 19 -52 l36 -35 -6 34 c-4 18 -7 37 -7 41
0 11 -22 17 -42 12z"/>
<path d="M4090 3129 c7 -11 14 -18 17 -15 8 8 -5 36 -17 36 -7 0 -7 -6 0 -21z"/>
<path d="M4315 3080 c3 -5 8 -10 11 -10 2 0 4 5 4 10 0 6 -5 10 -11 10 -5 0
-7 -4 -4 -10z"/>
<path d="M4140 3061 c0 -5 5 -13 10 -16 6 -3 10 -2 10 4 0 5 -4 13 -10 16 -5
3 -10 2 -10 -4z"/>
<path d="M4204 3008 c4 -47 3 -45 32 -52 24 -6 54 7 54 23 0 15 -52 61 -70 61
-15 0 -18 -6 -16 -32z"/>
<path d="M4935 2980 c-8 -13 20 -24 36 -15 8 6 7 10 -2 16 -18 11 -26 11 -34
-1z"/>
<path d="M4230 2924 c0 -40 17 -48 100 -55 54 -4 85 -10 90 -19 5 -8 12 -11
16 -8 3 4 -6 18 -20 33 -21 21 -23 27 -11 31 22 9 18 34 -5 34 -11 0 -20 -5
-20 -11 0 -10 -16 -9 -117 8 -28 4 -33 2 -33 -13z"/>
<path d="M4491 2872 c-16 -30 -14 -32 24 -32 19 0 44 -6 55 -12 15 -10 27 -10
51 -1 28 11 35 10 63 -12 23 -17 49 -25 96 -29 98 -8 180 -29 192 -50 9 -15 7
-17 -11 -11 -17 5 -21 2 -21 -19 0 -35 10 -56 26 -56 8 0 17 7 20 15 9 21 24
8 24 -20 0 -26 15 -41 25 -25 11 18 25 11 25 -12 0 -36 -13 -47 -58 -49 -27
-2 -42 -8 -42 -16 0 -7 4 -13 9 -13 14 0 101 -62 141 -99 50 -47 78 -64 94
-58 12 5 12 12 4 41 -6 20 -9 39 -6 42 3 3 29 -6 57 -21 29 -14 56 -23 60 -20
5 2 23 0 40 -6 23 -8 31 -17 31 -35 0 -17 -6 -24 -19 -24 -15 0 -11 -8 22 -40
42 -40 112 -90 125 -90 4 0 16 -11 26 -25 10 -14 25 -25 32 -25 8 0 14 -8 14
-19 0 -10 6 -33 14 -51 l13 -32 154 -3 c142 -2 272 -13 409 -34 104 -16 365
-71 413 -87 45 -15 50 -15 67 1 18 16 21 16 53 -9 l35 -27 11 33 c11 29 13 31
22 15 6 -10 8 -29 5 -43 -5 -20 -2 -25 21 -31 41 -10 63 -6 77 13 8 10 18 14
25 10 9 -6 9 -11 0 -22 -10 -12 -9 -18 4 -32 16 -15 18 -15 34 1 13 13 15 21
5 39 -6 13 -14 34 -17 46 -6 21 -4 23 18 20 13 -1 32 4 42 12 15 13 19 12 36
-10 10 -14 26 -34 36 -45 18 -20 18 -19 23 10 6 35 8 36 44 8 36 -29 29 -53
-17 -53 -23 0 -41 -8 -57 -25 -12 -13 -26 -22 -31 -19 -4 2 -11 25 -15 50 -7
47 -31 58 -26 11 1 -14 -2 -28 -8 -32 -28 -18 -6 -42 78 -83 48 -23 94 -42
103 -42 23 0 31 67 13 97 -26 41 -14 46 23 9 21 -20 41 -36 45 -36 18 0 6 -31
-22 -57 -16 -15 -26 -32 -22 -38 9 -13 49 -35 62 -35 16 0 12 32 -7 45 -19 14
-10 35 16 35 14 0 17 -6 13 -25 -2 -14 1 -32 8 -40 6 -8 9 -19 5 -26 -5 -6 9
-27 31 -49 40 -38 79 -98 75 -114 -1 -5 4 -4 12 2 9 8 23 9 38 4 22 -9 21 -10
-15 -22 -78 -26 -196 -123 -196 -162 0 -4 13 -14 30 -23 30 -15 60 -60 60 -90
0 -29 -39 -15 -78 30 l-40 45 -15 -33 c-9 -18 -29 -74 -45 -124 -17 -50 -41
-111 -55 -135 -30 -52 -110 -285 -102 -298 3 -5 29 -1 60 10 141 48 265 71
438 80 4 0 7 116 7 258 0 246 -1 258 -20 270 -25 15 -26 50 -2 68 16 13 16 13
0 14 -10 0 -18 -4 -18 -10 0 -5 -12 -10 -26 -10 -17 0 -24 4 -20 13 3 6 9 20
12 30 7 19 46 33 63 22 8 -4 11 34 11 119 0 96 -3 124 -12 122 -7 -3 -27 -7
-44 -10 -29 -5 -30 -3 -26 25 4 24 1 29 -17 29 -26 0 -27 17 -3 48 l18 23 24
-38 c14 -21 33 -39 43 -41 16 -3 17 14 17 240 0 232 -1 244 -20 258 -26 19
-26 40 0 33 20 -5 20 -1 19 106 l-2 111 -44 0 c-31 0 -43 4 -44 15 -1 8 -2 21
-3 28 0 6 -7 12 -13 11 -38 -3 -43 -5 -43 -18 0 -21 -41 -32 -51 -14 -6 12
-26 15 -84 13 -76 -2 -90 6 -57 31 16 13 16 14 -3 19 -12 4 -26 19 -33 34 -14
32 -60 57 -75 42 -7 -7 -16 -7 -29 0 -10 5 -23 7 -28 4 -6 -3 -10 3 -10 14 0
12 -7 21 -15 21 -8 0 -15 -4 -15 -10 0 -5 -8 -10 -19 -10 -10 0 -24 -7 -31
-15 -20 -24 -40 -18 -40 11 0 31 -23 28 -28 -4 -4 -24 -26 -29 -39 -9 -4 6 -6
20 -5 30 3 14 -1 17 -21 12 -14 -4 -28 -2 -32 5 -11 18 -117 61 -135 55 -12
-4 -19 1 -24 17 -6 22 -7 21 -42 -17 -33 -38 -35 -38 -30 -13 6 27 -7 47 -19
28 -10 -17 -74 -42 -90 -36 -9 3 -19 16 -24 28 -9 24 -9 24 -25 -26 -4 -12
-13 -17 -26 -13 -11 3 -20 1 -20 -4 0 -18 -29 -9 -35 11 -4 12 -15 20 -30 20
-12 0 -25 7 -29 15 -7 19 -30 19 -59 1 -12 -8 -44 -16 -71 -19 -38 -4 -52 -1
-67 14 -10 10 -25 16 -34 13 -9 -4 -21 1 -29 11 -11 15 -14 16 -19 3 -4 -12
-19 -15 -66 -13 -48 2 -63 -1 -77 -16 -23 -26 -48 -25 -41 1 3 11 2 20 -2 20
-4 0 -15 6 -25 13 -17 13 -17 15 -2 46 9 17 28 37 41 43 14 6 25 15 25 20 0
17 -16 6 -73 -47 -44 -41 -63 -53 -75 -47 -10 5 -34 10 -54 11 -44 2 -61 -21
-52 -67 5 -22 2 -31 -13 -37 -26 -11 -83 -13 -89 -3 -7 12 -72 10 -79 -3 -5
-7 -13 -5 -25 6 -16 15 -18 14 -23 -6 -4 -16 2 -29 22 -46 20 -18 27 -31 23
-49 -5 -28 -18 -30 -44 -7 -17 15 -18 15 -18 -6 0 -13 24 -45 63 -82 34 -34
54 -59 44 -55 -10 3 -31 6 -47 6 -19 0 -41 12 -63 33 -32 30 -37 31 -56 18
-12 -7 -24 -11 -28 -7 -3 3 -14 36 -24 73 -44 171 -69 268 -74 285 -6 18 -45
26 -45 8 0 -5 -13 -7 -30 -4 -35 8 -85 -20 -76 -42 3 -8 -1 -14 -9 -14 -8 0
-15 5 -15 10 0 6 -7 10 -16 10 -8 0 -12 -4 -9 -10 8 -13 -1 -13 -26 1 -11 5
-24 21 -29 35 -14 35 -37 29 -31 -8 0 -5 0 -8 -1 -8 -9 1 -77 28 -96 38 -14 8
-51 12 -95 11 -40 -1 -82 1 -94 5 -16 6 -24 3 -32 -12z m1532 -224 c-10 -11
-19 -15 -21 -8 -5 15 18 41 30 34 5 -3 1 -15 -9 -26z m-593 12 c0 -5 12 -16
28 -25 l27 -16 -37 4 c-29 2 -38 -1 -42 -16 -4 -17 -6 -18 -30 -2 -30 20 -32
28 -10 49 17 17 64 22 64 6z m224 -55 c-3 -8 -14 -17 -25 -20 -10 -4 -19 -13
-19 -21 0 -17 5 -17 30 -2 26 16 33 6 19 -26 -14 -29 -49 -35 -69 -11 -17 20
-27 19 -33 -5 -3 -11 -10 -20 -16 -20 -16 0 -14 27 3 33 7 3 16 20 20 38 3 18
13 43 21 56 15 22 17 22 45 8 19 -10 27 -20 24 -30z m-135 -31 c-9 -11 -15
-11 -25 -3 -19 15 -9 28 16 22 16 -4 18 -8 9 -19z m661 12 c0 -3 -4 -8 -10
-11 -5 -3 -10 -1 -10 4 0 6 5 11 10 11 6 0 10 -2 10 -4z m-76 -12 c20 -8 21
-34 2 -34 -17 0 -38 24 -29 33 8 8 8 8 27 1z m-666 -32 c6 -18 -15 -14 -22 4
-4 10 -1 14 6 12 6 -2 14 -10 16 -16z m299 2 c3 -8 2 -19 -3 -24 -13 -12 -54
7 -54 25 0 20 49 20 57 -1z m1231 -96 c-2 -17 -10 -23 -29 -23 -18 1 -25 -4
-22 -12 6 -15 -13 -18 -22 -3 -8 13 16 49 31 43 6 -2 15 0 19 6 11 19 26 12
23 -11z m-559 -1 c6 -8 31 -14 57 -15 25 0 49 -3 52 -7 11 -11 -42 -45 -62
-40 -11 2 -25 0 -32 -6 -6 -5 -18 -7 -26 -4 -17 7 -50 70 -41 79 11 11 40 6
52 -7z m661 -7 c0 -5 -4 -10 -10 -10 -5 0 -10 5 -10 10 0 6 5 10 10 10 6 0 10
-4 10 -10z m-1400 -40 c19 -16 21 -22 10 -35 -19 -22 -39 -18 -52 11 -10 21
-9 27 3 35 8 5 14 9 15 9 1 0 11 -9 24 -20z m660 0 c0 -5 -7 -10 -15 -10 -8 0
-15 5 -15 10 0 6 7 10 15 10 8 0 15 -4 15 -10z m296 -5 c4 -8 12 -15 20 -15 8
0 14 -5 14 -11 0 -8 -11 -9 -32 -5 -42 8 -58 24 -38 36 21 14 30 12 36 -5z
m154 -34 c0 -13 -29 -35 -37 -28 -7 8 15 37 28 37 5 0 9 -4 9 -9z m-869 -74
c-16 -16 -26 0 -10 19 9 11 15 12 17 4 2 -6 -1 -17 -7 -23z m689 -9 c0 -10 4
-18 10 -18 5 0 7 -7 4 -15 -7 -17 -34 -21 -34 -5 0 21 -41 9 -52 -15 -13 -29
-21 -31 -38 -10 -9 11 -17 12 -32 4 -16 -9 -19 -8 -16 3 3 7 24 15 49 18 37 4
48 11 68 43 25 38 40 35 41 -5z m834 -44 c23 -9 20 -23 -4 -17 -11 3 -20 9
-20 14 0 11 3 11 24 3z m-1582 -38 c3 -16 0 -27 -9 -31 -22 -8 -33 3 -33 31 0
33 36 33 42 0z m496 15 c8 -4 19 -17 25 -28 7 -11 20 -32 31 -47 22 -31 15
-46 -10 -22 -9 10 -28 16 -43 15 -36 -4 -71 9 -71 26 0 13 40 65 50 65 3 0 11
-4 18 -9z m87 -44 c-20 -11 -29 -3 -21 19 5 13 9 14 22 3 14 -11 14 -13 -1
-22z m-235 3 c0 -5 -7 -10 -15 -10 -8 0 -15 5 -15 10 0 6 7 10 15 10 8 0 15
-4 15 -10z m57 -74 c-4 -9 -11 -16 -17 -16 -15 0 -24 26 -16 47 6 15 8 15 23
1 9 -9 13 -24 10 -32z m323 14 c-29 -24 -36 -26 -39 -13 -4 20 25 43 53 43 18
0 16 -5 -14 -30z m-40 -70 c0 -20 -25 -50 -42 -50 -12 0 -2 48 14 67 13 16 28
7 28 -17z m400 -37 c0 -5 -5 -15 -10 -23 -8 -12 -10 -11 -10 8 0 12 5 22 10
22 6 0 10 -3 10 -7z m-61 -42 c16 -10 6 -31 -14 -31 -8 0 -13 9 -12 20 1 22 5
24 26 11z m596 -20 c-3 -6 -11 -11 -17 -11 -6 0 -6 6 2 15 14 17 26 13 15 -4z
m-95 -10 c0 -6 -4 -13 -10 -16 -5 -3 -10 1 -10 9 0 9 5 16 10 16 6 0 10 -4 10
-9z m-115 -65 c18 -13 18 -14 -4 -25 -17 -10 -26 -10 -37 0 -36 30 2 54 41 25z
m185 -286 c0 -5 -4 -10 -9 -10 -6 0 -13 5 -16 10 -3 6 1 10 9 10 9 0 16 -4 16
-10z m-50 -234 c0 -15 -24 -28 -34 -19 -7 7 13 33 25 33 5 0 9 -6 9 -14z m-73
-251 c2 -12 -7 -27 -21 -37 l-23 -17 0 40 c0 35 2 40 21 37 12 -2 22 -11 23
-23z m-19 -89 c5 -25 -6 -66 -18 -66 -6 0 -10 7 -10 15 0 8 -8 15 -17 15 -11
0 -14 3 -7 8 6 4 15 17 19 30 8 26 28 25 33 -2z"/>
<path d="M5256 2821 c-12 -19 6 -41 35 -41 19 0 34 -8 44 -24 12 -18 30 -26
87 -35 51 -8 74 -9 82 -1 13 13 -8 30 -36 30 -10 0 -18 6 -18 13 0 31 -44 55
-117 61 -42 4 -74 3 -77 -3z"/>
<path d="M3960 2791 c0 -4 6 -13 13 -20 10 -11 9 -12 -3 -6 -12 6 -13 5 -2 -6
16 -18 15 -49 -3 -63 -13 -10 -13 -14 -1 -38 9 -17 11 -30 5 -34 -5 -3 -7 -10
-3 -15 3 -5 9 -7 14 -4 5 3 14 -4 20 -15 6 -11 16 -20 23 -20 17 0 139 -125
130 -133 -3 -4 1 -7 9 -7 9 0 19 -11 22 -24 3 -13 31 -48 62 -77 30 -30 73
-77 94 -104 66 -86 227 -202 249 -180 3 4 -19 28 -49 55 -71 63 -64 55 -110
127 -23 34 -48 83 -57 110 -9 26 -27 62 -40 79 -12 17 -21 33 -18 36 3 3 -6
21 -20 42 -14 20 -32 51 -41 69 -9 17 -34 49 -55 69 -22 21 -39 42 -39 48 0 6
-4 9 -9 5 -5 -3 -19 7 -31 22 -38 49 -89 85 -125 88 -19 2 -35 0 -35 -4z"/>
<path d="M6760 2710 c-8 -5 -12 -11 -9 -14 2 -3 11 -1 19 4 8 5 12 11 9 14 -2
3 -11 1 -19 -4z"/>
<path d="M4947 2626 c-7 -17 17 -41 32 -32 13 8 2 46 -14 46 -7 0 -15 -6 -18
-14z"/>
<path d="M7263 2574 c-18 -8 -33 -18 -33 -23 0 -29 63 -23 74 6 10 25 -6 32
-41 17z"/>
<path d="M7432 2536 c1 -10 8 -17 13 -17 15 1 12 24 -3 29 -9 3 -13 -2 -10
-12z"/>
<path d="M5670 1956 c0 -12 -7 -32 -16 -44 -8 -12 -12 -22 -7 -23 4 0 44 0 88
1 44 1 112 -4 150 -10 39 -7 133 -15 210 -19 77 -4 149 -12 160 -18 11 -6 56
-22 100 -35 44 -13 79 -29 78 -34 -3 -15 -46 -21 -88 -11 -22 5 -53 9 -68 9
-34 -1 -61 -30 -45 -49 15 -18 -18 -29 -38 -12 -8 7 -32 15 -52 18 -34 6 -37
9 -37 39 0 20 -6 37 -16 42 -22 12 -340 34 -373 26 -29 -7 -36 -26 -10 -26 12
0 15 -6 10 -25 -7 -27 15 -45 55 -45 12 0 31 -8 41 -17 10 -9 36 -23 56 -31
129 -47 179 -62 202 -60 15 1 41 -9 61 -24 19 -14 57 -30 84 -36 130 -29 298
-63 380 -77 94 -17 411 -39 426 -29 5 3 5 13 -1 24 -7 13 -6 21 5 30 12 10 20
6 46 -19 19 -20 41 -31 58 -31 36 0 92 20 86 30 -3 4 6 11 19 14 29 7 40 43
21 72 -17 26 -69 59 -107 68 -27 6 -41 -8 -17 -16 16 -5 2 -77 -16 -84 -7 -3
-25 2 -40 12 -27 17 -27 18 -6 26 25 9 26 16 5 39 -16 17 -15 19 12 30 l29 11
-23 18 c-13 11 -39 22 -58 26 -19 3 -34 10 -34 16 0 5 -5 6 -10 3 -8 -5 -8
-11 -1 -19 27 -32 -55 -50 -93 -21 -11 8 -28 15 -39 15 -10 0 -21 9 -24 20 -3
11 -9 20 -14 20 -5 0 -9 5 -9 10 0 6 7 10 15 10 8 0 15 -5 15 -10 0 -6 13 -9
29 -8 32 2 33 28 1 28 -10 0 -20 6 -23 14 -3 7 -23 16 -44 20 -99 16 -131 24
-173 44 -25 11 -70 23 -100 25 -30 3 -102 14 -160 25 -58 11 -109 17 -115 14
-17 -11 -68 -2 -99 17 -40 24 -109 32 -317 36 -168 3 -169 3 -169 -19z m590
-81 c0 -8 -4 -15 -9 -15 -5 0 -14 7 -21 15 -10 13 -9 15 9 15 12 0 21 -6 21
-15z m400 -60 c0 -8 -4 -15 -9 -15 -13 0 -22 16 -14 24 11 11 23 6 23 -9z m1
-67 c43 -24 46 -39 9 -48 -31 -7 -37 -27 -11 -35 23 -7 27 -20 11 -30 -12 -7
-79 12 -95 27 -7 6 -4 14 7 22 16 12 16 14 -4 34 -18 17 -19 23 -8 36 17 22
45 20 91 -6z m-211 -93 c0 -8 -7 -15 -16 -15 -14 0 -14 3 -4 15 7 8 14 15 16
15 2 0 4 -7 4 -15z m481 -1 c11 -14 9 -15 -16 -12 -16 1 -30 9 -33 16 -6 18
33 15 49 -4z m-149 -28 c14 -14 34 -25 44 -25 59 0 114 -29 114 -61 0 -27 -22
-40 -67 -40 -37 0 -44 4 -58 30 -8 16 -15 35 -15 42 0 8 -13 19 -30 25 -20 8
-30 18 -30 32 0 27 9 26 42 -3z m398 -122 c0 -16 -27 -18 -50 -4 -12 7 -10 11
10 18 29 11 40 7 40 -14z"/>
<path d="M6989 1018 c-7 -18 -14 -36 -17 -40 -2 -5 3 -8 11 -8 13 0 37 47 37
71 0 21 -19 6 -31 -23z"/>
<path d="M6950 906 c-20 -9 -25 -19 -27 -53 -1 -32 2 -43 13 -43 9 0 14 10 14
27 0 15 9 37 21 49 24 26 14 36 -21 20z"/>
</g>
</svg>
